<?xml version="1.0" encoding="utf-8"?>
<!-- Generator: Adobe Illustrator 16.0.0, SVG Export Plug-In . SVG Version: 6.00 Build 0)  -->
<!DOCTYPE svg PUBLIC "-//W3C//DTD SVG 1.1//EN" "http://www.w3.org/Graphics/SVG/1.1/DTD/svg11.dtd">
<svg version="1.1" id="Capa_1" xmlns="http://www.w3.org/2000/svg" xmlns:xlink="http://www.w3.org/1999/xlink" x="0px" y="0px"
	 width="1920px" height="479.676px" viewBox="0 0 1920 479.676" enable-background="new 0 0 1920 479.676" xml:space="preserve">
<pattern  y="-600.324" width="34.287" height="34.287" patternUnits="userSpaceOnUse" id="New_Pattern_Swatch_37" viewBox="0 -34.287 34.287 34.287" overflow="visible">
	<g id="XMLID_187_">
		<polygon id="XMLID_190_" fill="none" points="0,0 34.287,0 34.287,-34.287 0,-34.287 		"/>
		<g id="XMLID_188_">
			<polygon id="XMLID_189_" fill="#72AC47" points="34.287,0 0,0 0,-34.287 34.287,-34.287 			"/>
		</g>
	</g>
</pattern>
<pattern  y="-600.324" width="34.287" height="34.287" patternUnits="userSpaceOnUse" id="New_Pattern_Swatch_38" viewBox="0 -34.287 34.287 34.287" overflow="visible">
	<g id="XMLID_191_">
		<polygon id="XMLID_194_" fill="none" points="0,0 34.287,0 34.287,-34.287 0,-34.287 		"/>
		<g id="XMLID_192_">
			<polygon id="XMLID_193_" fill="#9AC76B" points="34.287,0 0,0 0,-34.287 34.287,-34.287 			"/>
		</g>
	</g>
</pattern>
<g>
	<defs>
		<rect id="SVGID_1_" y="0.818" width="1920" height="478.857"/>
	</defs>
	<clipPath id="SVGID_2_">
		<use xlink:href="#SVGID_1_"  overflow="visible"/>
	</clipPath>
	<g clip-path="url(#SVGID_2_)">
		<path id="XMLID_29_" fill="#7AC6BF" d="M1068.453,328.734c-5.14,8.132-24.081,40.27-24.081,72.324
			c0,32.057,16.749,35.204,24.081,35.204c7.333,0,24.082-3.147,24.082-35.204C1092.535,369.004,1073.594,336.866,1068.453,328.734z"
			/>
		<path id="XMLID_28_" opacity="0.4" d="M1068.453,328.734v107.528c7.333,0,24.082-3.147,24.082-35.204
			C1092.535,369.004,1073.594,336.866,1068.453,328.734z"/>
		<path id="XMLID_27_" fill="#294920" d="M1080.947,386.103c-0.202-0.107-0.454-0.031-0.563,0.171l-10.08,18.834
			c-0.028-3.811-0.072-7.573-0.119-11.174c-0.041-2.992-0.068-5.869-0.101-8.585l4.757-10.047c0.094-0.198,0.017-0.439-0.18-0.543
			c-0.203-0.108-0.454-0.032-0.563,0.17l-4.052,7.59c-0.019-1.249-0.039-2.457-0.065-3.611c-0.087-4.398-0.16-8.064-0.21-10.63
			c-0.068-2.565-0.106-4.032-0.106-4.032c-0.014-0.478-0.399-0.871-0.883-0.883c-0.501-0.014-0.918,0.383-0.932,0.883
			c0,0-0.037,1.467-0.105,4.032c-0.05,2.565-0.123,6.231-0.211,10.63c-0.022,0.998-0.041,2.039-0.058,3.109l-4.67-8.748
			c-0.108-0.203-0.359-0.279-0.563-0.171c-0.196,0.104-0.274,0.345-0.18,0.544l5.372,11.346c-0.034,2.821-0.062,5.822-0.105,8.946
			c-0.045,3.438-0.087,7.027-0.114,10.662l-10.696-19.984c-0.107-0.201-0.359-0.277-0.563-0.169
			c-0.197,0.105-0.274,0.352-0.174,0.553l11.413,22.691c-0.005,1.156-0.012,2.314-0.012,3.474c-0.02,4.887-0.039,9.761-0.057,14.436
			l-9.404-13.344c-0.132-0.188-0.392-0.232-0.579-0.101c-0.183,0.129-0.229,0.379-0.109,0.564c0,0,9.93,15.301,10.082,15.359
			c0,0.103,0,0.209-0.001,0.312c-0.017,2.666-1.667,30.522-1.667,30.522h6.579c0,0-1.613-27.407-1.626-29.823l9.466-14.708
			c0.119-0.188,0.073-0.437-0.11-0.565c-0.188-0.132-0.446-0.087-0.578,0.101l-8.79,12.472c-0.019-4.913-0.039-10.062-0.06-15.225
			c-0.001-1.011-0.006-2.021-0.011-3.031l10.801-21.473C1081.223,386.455,1081.146,386.21,1080.947,386.103z"/>
	</g>
	<g clip-path="url(#SVGID_2_)">
		<path id="XMLID_26_" fill="#7AC6BF" d="M265.4,392.152c-3.541,5.602-16.589,27.74-16.589,49.822
			c0,22.083,11.538,24.251,16.589,24.251c5.051,0,16.589-2.168,16.589-24.251C281.989,419.893,268.941,397.754,265.4,392.152z"/>
		<path id="XMLID_25_" opacity="0.4" d="M265.4,392.152v74.073c5.051,0,16.589-2.168,16.589-24.251
			C281.989,419.893,268.941,397.754,265.4,392.152z"/>
		<path id="XMLID_24_" fill="#294920" d="M274.006,431.672c-0.139-0.074-0.313-0.021-0.387,0.117l-6.944,12.975
			c-0.02-2.625-0.05-5.217-0.082-7.697c-0.028-2.062-0.047-4.043-0.069-5.914l3.277-6.921c0.064-0.137,0.011-0.303-0.124-0.374
			c-0.14-0.074-0.313-0.022-0.387,0.117l-2.791,5.229c-0.013-0.86-0.027-1.692-0.045-2.488c-0.06-3.029-0.11-5.555-0.145-7.322
			c-0.047-1.768-0.073-2.777-0.073-2.777c-0.009-0.329-0.275-0.601-0.608-0.608c-0.345-0.01-0.632,0.264-0.642,0.608
			c0,0-0.025,1.01-0.073,2.777c-0.034,1.768-0.084,4.293-0.145,7.322c-0.016,0.688-0.028,1.405-0.04,2.143l-3.217-6.026
			c-0.075-0.14-0.248-0.192-0.388-0.118c-0.135,0.072-0.189,0.237-0.124,0.375l3.701,7.815c-0.023,1.943-0.042,4.011-0.073,6.163
			c-0.031,2.369-0.06,4.841-0.079,7.345l-7.369-13.767c-0.074-0.139-0.248-0.191-0.387-0.116c-0.136,0.072-0.189,0.242-0.12,0.381
			l7.862,15.631c-0.003,0.797-0.008,1.595-0.008,2.394c-0.014,3.366-0.027,6.724-0.039,9.944l-6.479-9.192
			c-0.091-0.129-0.27-0.16-0.399-0.069c-0.125,0.089-0.157,0.261-0.075,0.389c0,0,6.84,10.54,6.945,10.581
			c0,0.07,0,0.144-0.001,0.214c-0.011,1.837-1.148,21.026-1.148,21.026h4.532c0,0-1.111-18.88-1.12-20.544l6.521-10.132
			c0.082-0.13,0.05-0.301-0.076-0.39c-0.129-0.091-0.307-0.061-0.398,0.069l-6.056,8.591c-0.013-3.385-0.027-6.931-0.041-10.487
			c0-0.696-0.004-1.393-0.007-2.089l7.44-14.791C274.196,431.915,274.143,431.746,274.006,431.672z"/>
	</g>
	<g id="XMLID_20_" clip-path="url(#SVGID_2_)">
		<pattern  id="XMLID_2_" xlink:href="#New_Pattern_Swatch_38" patternTransform="matrix(1 0 0 1 445.7324 0)">
		</pattern>
		<path id="XMLID_23_" fill="url(#XMLID_2_)" d="M1309.552,265.852c-3.743,5.922-17.539,29.328-17.539,52.676
			c0,23.346,12.199,25.639,17.539,25.639s17.539-2.293,17.539-25.639C1327.091,295.18,1313.295,271.773,1309.552,265.852z"/>
		<pattern  id="XMLID_3_" xlink:href="#New_Pattern_Swatch_37" patternTransform="matrix(1 0 0 1 445.7324 0)">
		</pattern>
		<path id="XMLID_22_" fill="url(#XMLID_3_)" d="M1309.552,265.852v78.314c5.34,0,17.539-2.293,17.539-25.639
			C1327.091,295.18,1313.295,271.773,1309.552,265.852z"/>
		<path id="XMLID_21_" fill="#294920" d="M1318.651,307.634c-0.147-0.078-0.331-0.023-0.41,0.124l-7.342,13.718
			c-0.02-2.776-0.052-5.517-0.086-8.139c-0.03-2.18-0.051-4.273-0.073-6.253l3.464-7.316c0.068-0.146,0.012-0.321-0.131-0.396
			c-0.147-0.078-0.33-0.022-0.409,0.124l-2.951,5.528c-0.013-0.911-0.028-1.79-0.048-2.632c-0.063-3.203-0.116-5.871-0.153-7.74
			c-0.049-1.869-0.077-2.937-0.077-2.937c-0.01-0.349-0.29-0.634-0.643-0.644c-0.365-0.009-0.669,0.279-0.678,0.644
			c0,0-0.028,1.067-0.078,2.937c-0.036,1.869-0.09,4.537-0.152,7.74c-0.018,0.729-0.031,1.486-0.043,2.266l-3.401-6.371
			c-0.079-0.147-0.262-0.203-0.409-0.125c-0.143,0.076-0.199,0.252-0.131,0.396l3.912,8.264c-0.024,2.055-0.045,4.24-0.076,6.516
			c-0.033,2.504-0.063,5.117-0.084,7.766l-7.789-14.555c-0.079-0.146-0.263-0.202-0.41-0.124c-0.145,0.078-0.201,0.257-0.127,0.403
			l8.313,16.525c-0.004,0.843-0.008,1.688-0.009,2.531c-0.015,3.559-0.028,7.108-0.042,10.513l-6.849-9.718
			c-0.096-0.137-0.285-0.169-0.421-0.072c-0.133,0.092-0.168,0.275-0.081,0.41c0,0,7.232,11.144,7.344,11.187
			c-0.001,0.075-0.001,0.151-0.001,0.227c-0.013,1.941-1.214,22.23-1.214,22.23h4.792c0,0-1.176-19.962-1.186-21.721l6.895-10.714
			c0.087-0.135,0.053-0.316-0.08-0.41c-0.137-0.096-0.324-0.064-0.421,0.072l-6.401,9.084c-0.015-3.578-0.029-7.328-0.044-11.088
			c-0.001-0.736-0.005-1.473-0.008-2.208l7.866-15.64C1318.852,307.891,1318.796,307.712,1318.651,307.634z"/>
	</g>
	<g id="XMLID_16_" clip-path="url(#SVGID_2_)">
		<pattern  id="XMLID_4_" xlink:href="#New_Pattern_Swatch_38" patternTransform="matrix(1 0 0 1 445.7324 0)">
		</pattern>
		<path id="XMLID_19_" fill="url(#XMLID_4_)" d="M221.269,368.603c-3.743,5.922-17.539,29.328-17.539,52.676
			c0,23.346,12.199,25.639,17.539,25.639s17.539-2.293,17.539-25.639C238.808,397.931,225.012,374.524,221.269,368.603z"/>
		<pattern  id="XMLID_5_" xlink:href="#New_Pattern_Swatch_37" patternTransform="matrix(1 0 0 1 445.7324 0)">
		</pattern>
		<path id="XMLID_18_" fill="url(#XMLID_5_)" d="M221.269,368.603v78.314c5.34,0,17.539-2.293,17.539-25.639
			C238.808,397.931,225.012,374.524,221.269,368.603z"/>
		<path id="XMLID_17_" fill="#294920" d="M230.369,410.385c-0.147-0.078-0.331-0.023-0.41,0.124l-7.342,13.718
			c-0.02-2.776-0.052-5.517-0.086-8.139c-0.03-2.18-0.051-4.273-0.073-6.253l3.464-7.316c0.068-0.146,0.012-0.321-0.131-0.396
			c-0.147-0.078-0.33-0.022-0.409,0.124l-2.951,5.528c-0.013-0.911-0.028-1.79-0.048-2.632c-0.063-3.203-0.116-5.871-0.153-7.74
			c-0.049-1.869-0.077-2.937-0.077-2.937c-0.01-0.349-0.29-0.634-0.643-0.644c-0.365-0.009-0.669,0.279-0.678,0.644
			c0,0-0.028,1.067-0.078,2.937c-0.036,1.869-0.09,4.537-0.152,7.74c-0.018,0.729-0.031,1.486-0.043,2.266l-3.401-6.371
			c-0.079-0.147-0.262-0.203-0.409-0.125c-0.143,0.076-0.199,0.252-0.131,0.396l3.912,8.264c-0.024,2.055-0.045,4.24-0.076,6.516
			c-0.033,2.504-0.063,5.117-0.084,7.766l-7.789-14.555c-0.079-0.146-0.263-0.202-0.41-0.124c-0.145,0.078-0.201,0.257-0.127,0.403
			l8.313,16.525c-0.004,0.843-0.008,1.688-0.009,2.531c-0.015,3.559-0.028,7.108-0.042,10.513l-6.849-9.718
			c-0.096-0.137-0.285-0.169-0.421-0.072c-0.133,0.092-0.168,0.275-0.081,0.41c0,0,7.232,11.144,7.344,11.187
			c-0.001,0.075-0.001,0.151-0.001,0.227c-0.013,1.941-1.214,22.23-1.214,22.23h4.792c0,0-1.176-19.962-1.186-21.721l6.895-10.714
			c0.087-0.135,0.053-0.316-0.08-0.41c-0.137-0.096-0.324-0.064-0.421,0.072l-6.401,9.084c-0.015-3.578-0.029-7.328-0.044-11.088
			c-0.001-0.736-0.005-1.473-0.008-2.208l7.866-15.64C230.569,410.642,230.513,410.463,230.369,410.385z"/>
	</g>
	<g id="XMLID_12_" clip-path="url(#SVGID_2_)">
		<pattern  id="XMLID_6_" xlink:href="#New_Pattern_Swatch_38" patternTransform="matrix(1 0 0 1 445.7324 0)">
		</pattern>
		<path id="XMLID_15_" fill="url(#XMLID_6_)" d="M244.592,360.704c-3.743,5.922-17.539,29.328-17.539,52.676
			c0,23.346,12.199,25.639,17.539,25.639s17.539-2.293,17.539-25.639C262.131,390.032,248.335,366.626,244.592,360.704z"/>
		<pattern  id="XMLID_7_" xlink:href="#New_Pattern_Swatch_37" patternTransform="matrix(1 0 0 1 445.7324 0)">
		</pattern>
		<path id="XMLID_14_" fill="url(#XMLID_7_)" d="M244.592,360.704v78.314c5.34,0,17.539-2.293,17.539-25.639
			C262.131,390.032,248.335,366.626,244.592,360.704z"/>
		<path id="XMLID_13_" fill="#294920" d="M253.692,402.486c-0.147-0.078-0.331-0.023-0.41,0.124l-7.342,13.718
			c-0.02-2.776-0.052-5.517-0.086-8.139c-0.03-2.18-0.051-4.273-0.073-6.253l3.464-7.316c0.068-0.146,0.012-0.321-0.131-0.396
			c-0.147-0.078-0.33-0.022-0.409,0.124l-2.951,5.528c-0.013-0.911-0.028-1.79-0.048-2.632c-0.063-3.203-0.116-5.871-0.153-7.74
			c-0.049-1.869-0.077-2.937-0.077-2.937c-0.01-0.349-0.29-0.634-0.643-0.644c-0.365-0.009-0.669,0.279-0.678,0.644
			c0,0-0.028,1.067-0.078,2.937c-0.036,1.869-0.09,4.537-0.152,7.74c-0.018,0.729-0.031,1.486-0.043,2.266l-3.401-6.371
			c-0.079-0.147-0.262-0.203-0.409-0.125c-0.143,0.076-0.199,0.252-0.131,0.396l3.912,8.264c-0.024,2.055-0.045,4.24-0.076,6.516
			c-0.033,2.504-0.063,5.117-0.084,7.766l-7.789-14.555c-0.079-0.146-0.263-0.202-0.41-0.124c-0.145,0.078-0.201,0.257-0.127,0.403
			l8.313,16.525c-0.004,0.843-0.008,1.688-0.009,2.531c-0.015,3.559-0.028,7.108-0.042,10.513l-6.849-9.718
			c-0.096-0.137-0.285-0.169-0.421-0.072c-0.133,0.092-0.168,0.275-0.081,0.41c0,0,7.232,11.144,7.344,11.187
			c-0.001,0.075-0.001,0.151-0.001,0.227c-0.013,1.941-1.214,22.23-1.214,22.23h4.792c0,0-1.176-19.962-1.186-21.721l6.895-10.714
			c0.087-0.135,0.053-0.316-0.08-0.41c-0.137-0.096-0.324-0.064-0.421,0.072l-6.401,9.084c-0.015-3.578-0.029-7.328-0.044-11.088
			c-0.001-0.736-0.005-1.473-0.008-2.208l7.866-15.64C253.892,402.743,253.836,402.564,253.692,402.486z"/>
	</g>
	<circle clip-path="url(#SVGID_2_)" fill="#9ECBEE" cx="1310.934" cy="738.781" r="380.981"/>
	<circle clip-path="url(#SVGID_2_)" fill="#62AFE2" cx="1868.906" cy="611.288" r="610.469"/>
	<circle clip-path="url(#SVGID_2_)" fill="#62AFE2" cx="-209.991" cy="843.776" r="610.469"/>
	<g clip-path="url(#SVGID_2_)">
		<path fill="#4A671E" d="M1522.338,74.403c-2.29-30.231-13.079-57.74-44.318-53.762c-31.24-3.979-42.029,23.53-44.319,53.762
			c-2.302,30.381,43.942,39.006,43.942,39.006l0.377-41.75l0.377,41.75C1478.396,113.409,1524.64,104.784,1522.338,74.403"/>
		<polygon fill="#462D2A" points="1477.537,43.337 1473.771,127.62 1469.028,131.671 1476.282,130.755 1483.954,130.886 
			1480.886,126.835 1478.397,43.331 		"/>
		
			<line fill="none" stroke="#412C00" stroke-width="1.69" stroke-miterlimit="10" x1="1479.271" y1="86.956" x2="1494.406" y2="71.687"/>
		
			<line fill="none" stroke="#412C00" stroke-width="1.69" stroke-miterlimit="10" x1="1475.486" y1="97.315" x2="1459.187" y2="83.138"/>
		<polygon fill="#627C2F" points="1481.356,165.321 1529.39,160.409 1529.39,134.208 1505.101,113.468 1483.539,121.108 
			1475.353,129.843 		"/>
		<polygon fill="#412C00" points="1501.097,114.886 1529.39,137.341 1529.39,134.208 1505.101,113.468 		"/>
		<polygon fill="#4A671E" points="1457.886,129.843 1457.886,163.685 1485.177,165.321 1483.539,121.108 		"/>
		<polygon fill="#97A469" points="1448.606,133.116 1462.798,120.017 1505.1,113.468 1484.631,127.112 		"/>
		<polygon fill="#FFFFFF" points="1518.337,149.097 1506.873,145.403 1506.873,133.397 1518.337,137.091 		"/>
	</g>
</g>
</svg>
