<?xml version="1.0" encoding="utf-8"?>
<!-- Generator: Adobe Illustrator 16.0.0, SVG Export Plug-In . SVG Version: 6.00 Build 0)  -->
<!DOCTYPE svg PUBLIC "-//W3C//DTD SVG 1.1//EN" "http://www.w3.org/Graphics/SVG/1.1/DTD/svg11.dtd">
<svg version="1.1" id="Capa_1" xmlns="http://www.w3.org/2000/svg" xmlns:xlink="http://www.w3.org/1999/xlink" x="0px" y="0px"
	 width="1920px" height="204.338px" viewBox="0 275.338 1920 204.338" enable-background="new 0 275.338 1920 204.338"
	 xml:space="preserve">
<pattern  x="840.5" y="292.338" width="34.287" height="34.287" patternUnits="userSpaceOnUse" id="XMLID_2_2" viewBox="0 -34.287 34.287 34.287" overflow="visible">
	<g>
		<polygon fill="none" points="0,0 34.287,0 34.287,-34.287 0,-34.287 		"/>
		<g id="XMLID_75_">
			<polygon id="XMLID_78_" fill="none" points="0,-34.287 34.287,-34.287 34.287,0 0,0 			"/>
			<g id="XMLID_76_">
				<polygon id="XMLID_77_" fill="#9AC76B" points="34.287,-34.287 0,-34.287 0,0 34.287,0 				"/>
			</g>
		</g>
	</g>
</pattern>
<pattern  x="840.5" y="292.338" width="34.287" height="34.287" patternUnits="userSpaceOnUse" id="XMLID_3_2" viewBox="0 -34.287 34.287 34.287" overflow="visible">
	<g>
		<polygon fill="none" points="0,0 34.287,0 34.287,-34.287 0,-34.287 		"/>
		<g id="XMLID_71_">
			<polygon id="XMLID_74_" fill="none" points="0,-34.287 34.287,-34.287 34.287,0 0,0 			"/>
			<g id="XMLID_72_">
				<polygon id="XMLID_73_" fill="#72AC47" points="34.287,-34.287 0,-34.287 0,0 34.287,0 				"/>
			</g>
		</g>
	</g>
</pattern>
<pattern  x="840.5" y="292.338" width="34.287" height="34.287" patternUnits="userSpaceOnUse" id="XMLID_4_2" viewBox="0 -34.287 34.287 34.287" overflow="visible">
	<g>
		<polygon fill="none" points="0,0 34.287,0 34.287,-34.287 0,-34.287 		"/>
		<g id="XMLID_67_">
			<polygon id="XMLID_70_" fill="none" points="0,-34.287 34.287,-34.287 34.287,0 0,0 			"/>
			<g id="XMLID_68_">
				<polygon id="XMLID_69_" fill="#9AC76B" points="34.287,-34.287 0,-34.287 0,0 34.287,0 				"/>
			</g>
		</g>
	</g>
</pattern>
<pattern  x="840.5" y="292.338" width="34.287" height="34.287" patternUnits="userSpaceOnUse" id="XMLID_5_2" viewBox="0 -34.287 34.287 34.287" overflow="visible">
	<g>
		<polygon fill="none" points="0,0 34.287,0 34.287,-34.287 0,-34.287 		"/>
		<g id="XMLID_63_">
			<polygon id="XMLID_66_" fill="none" points="0,-34.287 34.287,-34.287 34.287,0 0,0 			"/>
			<g id="XMLID_64_">
				<polygon id="XMLID_65_" fill="#72AC47" points="34.287,-34.287 0,-34.287 0,0 34.287,0 				"/>
			</g>
		</g>
	</g>
</pattern>
<pattern  x="840.5" y="292.338" width="34.287" height="34.287" patternUnits="userSpaceOnUse" id="XMLID_6_2" viewBox="0 -34.287 34.287 34.287" overflow="visible">
	<g>
		<polygon fill="none" points="0,0 34.287,0 34.287,-34.287 0,-34.287 		"/>
		<g id="XMLID_59_">
			<polygon id="XMLID_62_" fill="none" points="0,-34.287 34.287,-34.287 34.287,0 0,0 			"/>
			<g id="XMLID_60_">
				<polygon id="XMLID_61_" fill="#9AC76B" points="34.287,-34.287 0,-34.287 0,0 34.287,0 				"/>
			</g>
		</g>
	</g>
</pattern>
<pattern  x="840.5" y="292.338" width="34.287" height="34.287" patternUnits="userSpaceOnUse" id="XMLID_7_2" viewBox="0 -34.287 34.287 34.287" overflow="visible">
	<g>
		<polygon fill="none" points="0,0 34.287,0 34.287,-34.287 0,-34.287 		"/>
		<g id="XMLID_55_">
			<polygon id="XMLID_58_" fill="none" points="0,-34.287 34.287,-34.287 34.287,0 0,0 			"/>
			<g id="XMLID_56_">
				<polygon id="XMLID_57_" fill="#72AC47" points="34.287,-34.287 0,-34.287 0,0 34.287,0 				"/>
			</g>
		</g>
	</g>
</pattern>
<g>
	<defs>
		<rect id="SVGID_1_" x="0" y="0.818" width="1920" height="478.857"/>
	</defs>
	<clipPath id="SVGID_2_">
		<use xlink:href="#SVGID_1_"  overflow="visible"/>
	</clipPath>
	<rect x="0" y="0.818" clip-path="url(#SVGID_2_)" fill="none" width="1920" height="478.857"/>
	<rect x="0" y="0.818" clip-path="url(#SVGID_2_)" fill="none" width="1920" height="478.857"/>
	<rect x="0" y="0.818" clip-path="url(#SVGID_2_)" fill="none" width="1920" height="478.857"/>
	<rect x="0" y="0.818" clip-path="url(#SVGID_2_)" fill="none" width="1920" height="478.857"/>
	<rect x="0" y="0.818" clip-path="url(#SVGID_2_)" fill="none" width="1920" height="478.857"/>
	<rect x="0" y="0.818" clip-path="url(#SVGID_2_)" fill="none" width="1920" height="478.857"/>
	<rect x="0" y="0.818" clip-path="url(#SVGID_2_)" fill="none" width="1920" height="478.857"/>
	<rect x="0" y="0.818" clip-path="url(#SVGID_2_)" fill="none" width="1920" height="478.857"/>
	<g clip-path="url(#SVGID_2_)">
		<g>
			<path id="XMLID_29_" fill="#7AC6BF" d="M1132.788,319.703c-5.701,9.021-26.715,44.676-26.715,80.235
				c0,35.563,18.581,39.056,26.715,39.056c8.136,0,26.717-3.492,26.717-39.056C1159.505,364.379,1138.492,328.725,1132.788,319.703z
				"/>
			<path id="XMLID_28_" opacity="0.4" enable-background="new    " d="M1132.788,319.703v119.291
				c8.136,0,26.717-3.492,26.717-39.056C1159.505,364.379,1138.492,328.725,1132.788,319.703z"/>
			<path id="XMLID_27_" fill="#294920" d="M1146.649,383.348c-0.225-0.119-0.504-0.034-0.624,0.189l-11.183,20.895
				c-0.031-4.228-0.08-8.401-0.132-12.396c-0.046-3.319-0.076-6.511-0.112-9.523l5.277-11.146c0.104-0.22,0.019-0.487-0.2-0.603
				c-0.225-0.12-0.504-0.035-0.624,0.189l-4.495,8.42c-0.021-1.386-0.043-2.726-0.072-4.007c-0.097-4.878-0.178-8.945-0.233-11.793
				c-0.076-2.845-0.117-4.473-0.117-4.473c-0.016-0.53-0.442-0.967-0.98-0.979c-0.556-0.016-1.019,0.425-1.033,0.979
				c0,0-0.041,1.628-0.116,4.473c-0.056,2.847-0.137,6.913-0.234,11.793c-0.024,1.107-0.046,2.263-0.064,3.45l-5.181-9.705
				c-0.12-0.226-0.398-0.311-0.625-0.19c-0.217,0.115-0.304,0.383-0.199,0.604l5.959,12.587c-0.037,3.13-0.069,6.459-0.116,9.925
				c-0.05,3.813-0.097,7.797-0.126,11.829l-11.866-22.171c-0.119-0.223-0.398-0.307-0.625-0.188
				c-0.218,0.117-0.304,0.392-0.193,0.613l12.662,25.174c-0.006,1.283-0.014,2.567-0.014,3.854
				c-0.022,5.423-0.043,10.83-0.063,16.016l-10.432-14.803c-0.146-0.21-0.436-0.259-0.643-0.113
				c-0.204,0.144-0.255,0.421-0.122,0.626c0,0,11.018,16.975,11.186,17.039c0,0.114,0,0.231-0.001,0.347
				c-0.019,2.957-1.85,33.86-1.85,33.86h7.299c0,0-1.79-30.404-1.804-33.085l10.501-16.316c0.132-0.21,0.081-0.485-0.121-0.628
				c-0.209-0.146-0.495-0.097-0.642,0.113l-9.752,13.836c-0.021-5.451-0.043-11.164-0.066-16.892
				c-0.001-1.121-0.007-2.241-0.013-3.361l11.982-23.823C1146.956,383.739,1146.87,383.467,1146.649,383.348z"/>
		</g>
		<g>
			<path id="XMLID_26_" fill="#7AC6BF" d="M767.686,357.314c-3.541,5.603-16.589,27.74-16.589,49.822
				c0,22.083,11.538,24.251,16.589,24.251s16.589-2.168,16.589-24.251C784.275,385.055,771.227,362.916,767.686,357.314z"/>
			<path id="XMLID_25_" opacity="0.4" enable-background="new    " d="M767.686,357.314v74.073c5.051,0,16.589-2.168,16.589-24.251
				C784.275,385.055,771.227,362.916,767.686,357.314z"/>
			<path id="XMLID_24_" fill="#294920" d="M776.292,396.834c-0.139-0.074-0.313-0.021-0.387,0.116l-6.944,12.976
				c-0.02-2.625-0.05-5.217-0.081-7.697c-0.028-2.062-0.048-4.043-0.069-5.914l3.277-6.921c0.063-0.137,0.011-0.303-0.124-0.374
				c-0.141-0.074-0.313-0.021-0.388,0.117l-2.791,5.229c-0.013-0.859-0.026-1.691-0.045-2.487c-0.06-3.029-0.109-5.556-0.145-7.322
				c-0.047-1.768-0.073-2.777-0.073-2.777c-0.009-0.329-0.275-0.601-0.608-0.607c-0.345-0.011-0.632,0.264-0.642,0.607
				c0,0-0.025,1.011-0.073,2.777c-0.034,1.768-0.084,4.293-0.145,7.322c-0.017,0.688-0.028,1.404-0.04,2.143l-3.217-6.025
				c-0.075-0.141-0.248-0.192-0.389-0.118c-0.135,0.071-0.188,0.236-0.124,0.375l3.701,7.814c-0.022,1.943-0.042,4.012-0.073,6.163
				c-0.03,2.369-0.06,4.841-0.079,7.345l-7.368-13.767c-0.074-0.139-0.248-0.191-0.388-0.116c-0.136,0.072-0.188,0.242-0.12,0.381
				l7.862,15.632c-0.003,0.797-0.008,1.595-0.008,2.394c-0.014,3.366-0.027,6.724-0.039,9.944l-6.479-9.192
				c-0.092-0.129-0.271-0.16-0.399-0.069c-0.125,0.09-0.157,0.262-0.075,0.39c0,0,6.84,10.54,6.945,10.581
				c0,0.069,0,0.144-0.001,0.214c-0.011,1.837-1.148,21.025-1.148,21.025h4.532c0,0-1.111-18.88-1.12-20.544l6.521-10.132
				c0.082-0.13,0.05-0.301-0.076-0.39c-0.129-0.091-0.308-0.062-0.398,0.069l-6.056,8.591c-0.013-3.386-0.027-6.932-0.041-10.487
				c0-0.696-0.004-1.393-0.007-2.089l7.439-14.791C776.482,397.076,776.429,396.907,776.292,396.834z"/>
		</g>
		<g id="XMLID_20_">
			<pattern  id="XMLID_2_" xlink:href="#XMLID_2_2" patternTransform="matrix(1 0 0 -1 119.5391 -15243.2871)">
			</pattern>
			<path id="XMLID_23_" fill="url(#XMLID_2_)" d="M1106.073,377.875c-4.152,6.569-19.458,32.536-19.458,58.438
				c0,25.899,13.534,28.443,19.458,28.443s19.458-2.544,19.458-28.443C1125.531,410.411,1110.225,384.444,1106.073,377.875z"/>
			<pattern  id="XMLID_3_" xlink:href="#XMLID_3_2" patternTransform="matrix(1 0 0 -1 119.5391 -15243.2871)">
			</pattern>
			<path id="XMLID_22_" fill="url(#XMLID_3_)" d="M1106.073,377.875v86.88c5.924,0,19.458-2.544,19.458-28.443
				C1125.531,410.411,1110.225,384.444,1106.073,377.875z"/>
			<path id="XMLID_21_" fill="#294920" d="M1116.167,424.228c-0.162-0.087-0.367-0.026-0.455,0.138l-8.145,15.218
				c-0.023-3.08-0.058-6.12-0.096-9.028c-0.033-2.42-0.057-4.741-0.081-6.938l3.843-8.116c0.076-0.163,0.014-0.356-0.146-0.44
				c-0.162-0.085-0.366-0.023-0.454,0.138l-3.273,6.133c-0.015-1.011-0.03-1.985-0.053-2.919c-0.069-3.554-0.129-6.514-0.17-8.587
				c-0.055-2.073-0.085-3.258-0.085-3.258c-0.011-0.387-0.322-0.703-0.714-0.715c-0.404-0.01-0.742,0.31-0.752,0.715
				c0,0-0.031,1.183-0.087,3.258c-0.04,2.073-0.1,5.033-0.168,8.587c-0.021,0.808-0.034,1.648-0.048,2.513l-3.773-7.067
				c-0.088-0.163-0.29-0.225-0.454-0.139c-0.158,0.084-0.221,0.279-0.145,0.439l4.34,9.168c-0.027,2.28-0.05,4.704-0.085,7.229
				c-0.036,2.777-0.068,5.676-0.093,8.615l-8.641-16.147c-0.088-0.162-0.292-0.224-0.455-0.138
				c-0.161,0.087-0.224,0.285-0.142,0.447l9.224,18.333c-0.005,0.935-0.01,1.872-0.01,2.808c-0.018,3.948-0.031,7.885-0.048,11.663
				l-7.598-10.781c-0.106-0.151-0.316-0.188-0.467-0.08c-0.147,0.102-0.187,0.306-0.091,0.455c0,0,8.024,12.362,8.147,12.41
				c-0.001,0.084-0.001,0.168-0.001,0.253c-0.014,2.152-1.347,24.661-1.347,24.661h5.316c0,0-1.305-22.146-1.315-24.097
				l7.648-11.886c0.097-0.15,0.059-0.352-0.089-0.455c-0.151-0.106-0.359-0.071-0.467,0.08l-7.102,10.077
				c-0.017-3.97-0.031-8.13-0.048-12.301c-0.002-0.816-0.006-1.635-0.01-2.449l8.727-17.352
				C1116.39,424.513,1116.328,424.315,1116.167,424.228z"/>
		</g>
		<g id="XMLID_38_">
			<pattern  id="XMLID_4_" xlink:href="#XMLID_4_2" patternTransform="matrix(1 0 0 -1 119.5391 -15243.2871)">
			</pattern>
			<path id="XMLID_31_" fill="url(#XMLID_4_)" d="M723.555,333.765c-3.743,5.922-17.539,29.328-17.539,52.676
				c0,23.347,12.199,25.64,17.539,25.64s17.539-2.293,17.539-25.64C741.094,363.093,727.299,339.686,723.555,333.765z"/>
			<pattern  id="XMLID_5_" xlink:href="#XMLID_5_2" patternTransform="matrix(1 0 0 -1 119.5391 -15243.2871)">
			</pattern>
			<path id="XMLID_36_" fill="url(#XMLID_5_)" d="M723.555,333.765v78.313c5.34,0,17.539-2.293,17.539-25.639
				C741.094,363.093,727.299,339.686,723.555,333.765z"/>
			<path id="XMLID_37_" fill="#294920" d="M732.655,375.547c-0.146-0.078-0.331-0.023-0.41,0.124l-7.342,13.718
				c-0.02-2.776-0.052-5.517-0.086-8.139c-0.03-2.181-0.051-4.273-0.073-6.253l3.464-7.316c0.068-0.146,0.013-0.321-0.131-0.396
				c-0.146-0.077-0.33-0.021-0.409,0.124l-2.95,5.528c-0.014-0.911-0.028-1.79-0.049-2.632c-0.063-3.203-0.115-5.871-0.152-7.74
				c-0.049-1.869-0.077-2.937-0.077-2.937c-0.01-0.35-0.29-0.635-0.643-0.645c-0.365-0.009-0.67,0.279-0.679,0.645
				c0,0-0.027,1.066-0.078,2.937c-0.035,1.869-0.09,4.537-0.151,7.74c-0.019,0.729-0.031,1.486-0.043,2.266l-3.401-6.371
				c-0.079-0.146-0.262-0.203-0.409-0.125c-0.143,0.076-0.199,0.252-0.131,0.396l3.912,8.264c-0.024,2.056-0.045,4.24-0.076,6.517
				c-0.033,2.504-0.063,5.116-0.084,7.766l-7.789-14.555c-0.079-0.146-0.263-0.202-0.41-0.124c-0.145,0.078-0.2,0.257-0.127,0.402
				l8.313,16.525c-0.004,0.843-0.008,1.688-0.009,2.531c-0.016,3.559-0.028,7.107-0.042,10.513l-6.85-9.718
				c-0.096-0.137-0.285-0.169-0.421-0.072c-0.133,0.092-0.168,0.275-0.081,0.41c0,0,7.232,11.144,7.344,11.187
				c-0.001,0.075-0.001,0.151-0.001,0.228c-0.013,1.94-1.214,22.229-1.214,22.229h4.792c0,0-1.176-19.962-1.186-21.721l6.895-10.714
				c0.087-0.135,0.054-0.316-0.08-0.41c-0.137-0.096-0.323-0.063-0.421,0.072l-6.4,9.084c-0.016-3.578-0.029-7.328-0.044-11.088
				c-0.001-0.736-0.006-1.474-0.009-2.208l7.866-15.641C732.855,375.804,732.8,375.625,732.655,375.547z"/>
		</g>
		<g id="XMLID_50_">
			<pattern  id="XMLID_6_" xlink:href="#XMLID_6_2" patternTransform="matrix(1 0 0 -1 119.5391 -15243.2871)">
			</pattern>
			<path id="XMLID_43_" fill="url(#XMLID_6_)" d="M746.878,325.865c-3.742,5.923-17.538,29.328-17.538,52.677
				c0,23.346,12.198,25.639,17.538,25.639c5.341,0,17.539-2.293,17.539-25.639C764.417,355.194,750.621,331.788,746.878,325.865z"/>
			<pattern  id="XMLID_7_" xlink:href="#XMLID_7_2" patternTransform="matrix(1 0 0 -1 119.5391 -15243.2871)">
			</pattern>
			<path id="XMLID_48_" fill="url(#XMLID_7_)" d="M746.878,325.865v78.314c5.341,0,17.539-2.293,17.539-25.639
				C764.417,355.194,750.621,331.788,746.878,325.865z"/>
			<path id="XMLID_49_" fill="#294920" d="M755.978,367.648c-0.147-0.078-0.331-0.022-0.41,0.124l-7.342,13.718
				c-0.021-2.775-0.052-5.517-0.086-8.139c-0.03-2.18-0.051-4.273-0.073-6.253l3.464-7.316c0.068-0.146,0.012-0.32-0.131-0.396
				c-0.147-0.078-0.33-0.022-0.409,0.124l-2.951,5.527c-0.013-0.91-0.027-1.789-0.048-2.632c-0.063-3.203-0.116-5.871-0.152-7.739
				c-0.05-1.869-0.077-2.938-0.077-2.938c-0.011-0.349-0.29-0.634-0.644-0.644c-0.365-0.01-0.669,0.278-0.678,0.644
				c0,0-0.028,1.067-0.078,2.938c-0.036,1.868-0.09,4.536-0.152,7.739c-0.018,0.729-0.03,1.486-0.043,2.267l-3.4-6.371
				c-0.079-0.147-0.262-0.203-0.409-0.125c-0.143,0.076-0.199,0.252-0.131,0.396l3.912,8.265c-0.024,2.055-0.045,4.239-0.076,6.516
				c-0.033,2.504-0.063,5.117-0.084,7.766l-7.789-14.555c-0.079-0.146-0.263-0.202-0.41-0.124c-0.145,0.078-0.201,0.257-0.127,0.403
				l8.313,16.524c-0.004,0.844-0.009,1.688-0.01,2.531c-0.015,3.56-0.027,7.108-0.042,10.513l-6.849-9.718
				c-0.096-0.137-0.285-0.169-0.421-0.071c-0.133,0.092-0.168,0.274-0.081,0.409c0,0,7.232,11.145,7.344,11.188
				c-0.001,0.075-0.001,0.151-0.001,0.227c-0.013,1.941-1.214,22.23-1.214,22.23h4.792c0,0-1.176-19.962-1.186-21.721l6.895-10.715
				c0.087-0.135,0.053-0.315-0.08-0.409c-0.137-0.097-0.324-0.064-0.421,0.071l-6.401,9.084c-0.015-3.578-0.028-7.328-0.044-11.088
				c-0.001-0.735-0.005-1.473-0.008-2.208l7.866-15.64C756.178,367.905,756.122,367.726,755.978,367.648z"/>
		</g>
		<circle fill="#9ECBEE" cx="1401.796" cy="774.607" r="422.657"/>
		<circle fill="#62AFE2" cx="706.016" cy="1021.604" r="610.469"/>
		<g>
			<path fill="#4A671E" d="M1244.573,339.565c-2.541-33.537-14.511-64.055-49.167-59.643c-34.657-4.414-46.627,26.105-49.167,59.643
				c-2.554,33.707,48.749,43.275,48.749,43.275l0.418-46.317l0.418,46.317C1195.823,382.84,1247.126,373.272,1244.573,339.565"/>
			<polygon fill="#462D2A" points="1194.87,305.103 1190.692,398.606 1185.43,403.1 1193.477,402.083 1201.989,402.229 
				1198.586,397.735 1195.824,305.096 			"/>
			
				<line fill="none" stroke="#412C00" stroke-width="1.69" stroke-miterlimit="10" x1="1196.794" y1="353.493" x2="1213.585" y2="336.553"/>
			
				<line fill="none" stroke="#412C00" stroke-width="1.69" stroke-miterlimit="10" x1="1192.594" y1="364.984" x2="1174.512" y2="349.257"/>
			<polygon fill="#627C2F" points="1199.107,440.429 1252.395,434.982 1252.395,405.914 1225.45,382.905 1201.528,391.379 
				1192.447,401.072 			"/>
			<polygon fill="#412C00" points="1221.008,384.478 1252.395,409.39 1252.395,405.914 1225.45,382.905 			"/>
			<polygon fill="#4A671E" points="1173.07,401.072 1173.07,438.615 1203.346,440.429 1201.528,391.379 			"/>
			<polygon fill="#97A469" points="1162.774,404.702 1178.519,390.17 1225.449,382.905 1202.741,398.04 			"/>
			<polygon fill="#FFFFFF" points="1240.134,422.432 1227.415,418.332 1227.415,405.013 1240.134,409.113 			"/>
		</g>
	</g>
</g>
</svg>
