<?xml version="1.0" encoding="utf-8"?>
<!-- Generator: Adobe Illustrator 16.0.0, SVG Export Plug-In . SVG Version: 6.00 Build 0)  -->
<!DOCTYPE svg PUBLIC "-//W3C//DTD SVG 1.1//EN" "http://www.w3.org/Graphics/SVG/1.1/DTD/svg11.dtd">
<svg version="1.1" id="Capa_1" xmlns="http://www.w3.org/2000/svg" xmlns:xlink="http://www.w3.org/1999/xlink" x="0px" y="0px"
	 width="1920px" height="204.338px" viewBox="0 0 1920 204.338" enable-background="new 0 0 1920 204.338" xml:space="preserve">
<g>
	<defs>
		<rect id="SVGID_1_" x="0" y="-274.519" width="1920" height="478.857"/>
	</defs>
	<clipPath id="SVGID_2_">
		<use xlink:href="#SVGID_1_"  overflow="visible"/>
	</clipPath>
	<g clip-path="url(#SVGID_2_)">
		<defs>
			<rect id="SVGID_3_" x="0" y="-274.519" width="1920" height="478.857"/>
		</defs>
		<clipPath id="SVGID_4_">
			<use xlink:href="#SVGID_3_"  overflow="visible"/>
		</clipPath>
		<rect x="0" y="-274.519" clip-path="url(#SVGID_4_)" fill="none" width="1920" height="478.857"/>
	</g>
	<g clip-path="url(#SVGID_2_)">
		<defs>
			<rect id="SVGID_5_" x="0" y="-274.519" width="1920" height="478.857"/>
		</defs>
		<clipPath id="SVGID_6_">
			<use xlink:href="#SVGID_5_"  overflow="visible"/>
		</clipPath>
		<rect x="0" y="-274.519" clip-path="url(#SVGID_6_)" fill="none" width="1920" height="478.857"/>
	</g>
	<g clip-path="url(#SVGID_2_)">
		<defs>
			<rect id="SVGID_7_" x="0" y="-274.519" width="1920" height="478.857"/>
		</defs>
		<clipPath id="SVGID_8_">
			<use xlink:href="#SVGID_7_"  overflow="visible"/>
		</clipPath>
		<rect x="0" y="-274.519" clip-path="url(#SVGID_8_)" fill="none" width="1920" height="478.857"/>
	</g>
	<g clip-path="url(#SVGID_2_)">
		<defs>
			<rect id="SVGID_9_" x="0" y="-274.519" width="1920" height="478.857"/>
		</defs>
		<clipPath id="SVGID_10_">
			<use xlink:href="#SVGID_9_"  overflow="visible"/>
		</clipPath>
		<rect x="0" y="-274.519" clip-path="url(#SVGID_10_)" fill="none" width="1920" height="478.857"/>
	</g>
	<g clip-path="url(#SVGID_2_)">
		<defs>
			<rect id="SVGID_11_" x="0" y="-274.519" width="1920" height="478.857"/>
		</defs>
		<clipPath id="SVGID_12_">
			<use xlink:href="#SVGID_11_"  overflow="visible"/>
		</clipPath>
		<rect x="0" y="-274.519" clip-path="url(#SVGID_12_)" fill="none" width="1920" height="478.857"/>
	</g>
	<g clip-path="url(#SVGID_2_)">
		<defs>
			<rect id="SVGID_13_" x="0" y="-274.519" width="1920" height="478.857"/>
		</defs>
		<clipPath id="SVGID_14_">
			<use xlink:href="#SVGID_13_"  overflow="visible"/>
		</clipPath>
		<rect x="0" y="-274.519" clip-path="url(#SVGID_14_)" fill="none" width="1920" height="478.857"/>
	</g>
	<g clip-path="url(#SVGID_2_)">
		<defs>
			<rect id="SVGID_15_" x="0" y="-274.519" width="1920" height="478.857"/>
		</defs>
		<clipPath id="SVGID_16_">
			<use xlink:href="#SVGID_15_"  overflow="visible"/>
		</clipPath>
		<rect x="0" y="-274.519" clip-path="url(#SVGID_16_)" fill="none" width="1920" height="478.857"/>
	</g>
	<g clip-path="url(#SVGID_2_)">
		<defs>
			<rect id="SVGID_17_" x="0" y="-274.519" width="1920" height="478.857"/>
		</defs>
		<clipPath id="SVGID_18_">
			<use xlink:href="#SVGID_17_"  overflow="visible"/>
		</clipPath>
		<rect x="0" y="-274.519" clip-path="url(#SVGID_18_)" fill="none" width="1920" height="478.857"/>
	</g>
	<circle clip-path="url(#SVGID_2_)" fill="#F1B57D" cx="1401.797" cy="499.271" r="422.657"/>
	<circle clip-path="url(#SVGID_2_)" fill="#F1B57D" cx="706.016" cy="746.268" r="610.469"/>
	<path clip-path="url(#SVGID_2_)" fill="#F1B57D" d="M1102.846,206.253c0,0,12.648-75.047,96.738-75.047v75.047H1102.846z"/>
	<g clip-path="url(#SVGID_2_)">
		<path fill="none" d="M1102.848,207.339c-0.061,0-0.121-0.004-0.183-0.016c-0.594-0.097-0.993-0.658-0.893-1.253
			c0.032-0.189,3.365-19.229,17.03-37.979c12.625-17.323,36.887-37.967,80.785-37.967c0.598,0,1.085,0.484,1.085,1.086
			c0,0.603-0.487,1.091-1.085,1.091c-42.938,0-66.645,20.119-78.973,37.002c-13.396,18.342-16.665,36.95-16.697,37.136
			C1103.83,206.964,1103.369,207.339,1102.848,207.339z"/>
	</g>
	<g clip-path="url(#SVGID_2_)">
		<path fill="#136296" d="M1111.634,181.1h-173.7c-1,0-1.81-0.484-1.81-1.091c0-0.602,0.81-1.087,1.81-1.087h173.7
			c0.997,0,1.81,0.485,1.81,1.087C1113.443,180.615,1112.636,181.1,1111.634,181.1z"/>
	</g>
	<g clip-path="url(#SVGID_2_)">
		<g>
			<path fill="#136296" d="M958.594,189.03h-5.893c-0.929,0-1.68-0.484-1.68-1.087c0-0.602,0.751-1.091,1.68-1.091h5.893
				c0.929,0,1.684,0.489,1.684,1.091C960.281,188.541,959.53,189.03,958.594,189.03z"/>
		</g>
		<g>
			<path fill="#136296" d="M1090.808,189.03h-11.016c-0.935,0-1.684-0.484-1.684-1.087c0-0.602,0.749-1.091,1.684-1.091h11.016
				c0.926,0,1.681,0.489,1.681,1.091C1092.489,188.541,1091.734,189.03,1090.808,189.03z M1068.768,189.03h-11.016
				c-0.932,0-1.684-0.484-1.684-1.087c0-0.602,0.752-1.091,1.684-1.091h11.016c0.933,0,1.684,0.489,1.684,1.091
				C1070.458,188.541,1069.704,189.03,1068.768,189.03z M1046.735,189.03h-11.016c-0.929,0-1.684-0.484-1.684-1.087
				c0-0.602,0.755-1.091,1.684-1.091h11.016c0.931,0,1.683,0.489,1.683,1.091C1048.418,188.541,1047.666,189.03,1046.735,189.03z
				 M1024.703,189.03h-11.022c-0.928,0-1.684-0.484-1.684-1.087c0-0.602,0.756-1.091,1.684-1.091h11.022
				c0.926,0,1.681,0.489,1.681,1.091C1026.386,188.541,1025.634,189.03,1024.703,189.03z M1002.663,189.03h-11.016
				c-0.927,0-1.681-0.484-1.681-1.087c0-0.602,0.754-1.091,1.681-1.091h11.016c0.933,0,1.683,0.489,1.683,1.091
				C1004.353,188.541,1003.595,189.03,1002.663,189.03z M980.63,189.03h-11.017c-0.928,0-1.683-0.484-1.683-1.087
				c0-0.602,0.755-1.091,1.683-1.091h11.017c0.931,0,1.684,0.489,1.684,1.091C982.313,188.541,981.56,189.03,980.63,189.03z"/>
		</g>
		<g>
			<path fill="#136296" d="M1107.718,189.03h-5.892c-0.93,0-1.684-0.484-1.684-1.087c0-0.602,0.754-1.091,1.684-1.091h5.892
				c0.932,0,1.684,0.489,1.684,1.091C1109.401,188.541,1108.649,189.03,1107.718,189.03z"/>
		</g>
	</g>
	<g clip-path="url(#SVGID_2_)">
		<g>
			<path fill="#136296" d="M1013.641,198.451h-5.436c-0.6,0-1.085-0.484-1.085-1.091c0-0.598,0.485-1.087,1.085-1.087h5.436
				c0.603,0,1.087,0.485,1.087,1.087C1014.732,197.963,1014.244,198.451,1013.641,198.451z"/>
		</g>
		<g>
			<path fill="#136296" d="M1087.153,198.451h-12.249c-0.603,0-1.087-0.484-1.087-1.091c0-0.598,0.484-1.087,1.087-1.087h12.249
				c0.602,0,1.087,0.485,1.087,1.087C1088.24,197.963,1087.755,198.451,1087.153,198.451z M1062.648,198.451h-12.251
				c-0.6,0-1.087-0.484-1.087-1.091c0-0.598,0.487-1.087,1.087-1.087h12.251c0.601,0,1.087,0.485,1.087,1.087
				C1063.737,197.963,1063.253,198.451,1062.648,198.451z M1038.148,198.451h-12.253c-0.599,0-1.087-0.484-1.087-1.091
				c0-0.598,0.488-1.087,1.087-1.087h12.253c0.598,0,1.085,0.485,1.085,1.087C1039.233,197.963,1038.746,198.451,1038.148,198.451z"
				/>
		</g>
		<g>
			<path fill="#136296" d="M1104.844,198.451h-5.438c-0.6,0-1.087-0.484-1.087-1.091c0-0.598,0.487-1.087,1.087-1.087h5.438
				c0.599,0,1.085,0.485,1.085,1.087C1105.928,197.963,1105.442,198.451,1104.844,198.451z"/>
		</g>
	</g>
	<g clip-path="url(#SVGID_2_)">
		<g>
			<path fill="#136296" d="M1012.011,207.339h-3.806c-0.6,0-1.085-0.484-1.085-1.086c0-0.603,0.485-1.091,1.085-1.091h3.806
				c0.6,0,1.087,0.488,1.087,1.091C1013.098,206.854,1012.616,207.339,1012.011,207.339z"/>
		</g>
		<g>
			<path fill="#136296" d="M1091.128,207.339h-7.91c-0.602,0-1.086-0.484-1.086-1.086c0-0.603,0.484-1.091,1.086-1.091h7.91
				c0.603,0,1.087,0.488,1.087,1.091C1092.215,206.854,1091.73,207.339,1091.128,207.339z M1075.303,207.339h-7.91
				c-0.602,0-1.087-0.484-1.087-1.086c0-0.603,0.485-1.091,1.087-1.091h7.91c0.602,0,1.087,0.488,1.087,1.091
				C1076.39,206.854,1075.905,207.339,1075.303,207.339z M1059.483,207.339h-7.914c-0.599,0-1.085-0.484-1.085-1.086
				c0-0.603,0.486-1.091,1.085-1.091h7.914c0.598,0,1.087,0.488,1.087,1.091C1060.57,206.854,1060.081,207.339,1059.483,207.339z
				 M1043.659,207.339h-7.913c-0.6,0-1.086-0.484-1.086-1.086c0-0.603,0.486-1.091,1.086-1.091h7.913c0.6,0,1.086,0.488,1.086,1.091
				C1044.745,206.854,1044.259,207.339,1043.659,207.339z M1027.834,207.339h-7.912c-0.6,0-1.087-0.484-1.087-1.086
				c0-0.603,0.487-1.091,1.087-1.091h7.912c0.601,0,1.087,0.488,1.087,1.091C1028.921,206.854,1028.436,207.339,1027.834,207.339z"
				/>
		</g>
		<g>
			<path fill="#136296" d="M1102.846,207.339h-3.806c-0.601,0-1.085-0.484-1.085-1.086c0-0.603,0.484-1.091,1.085-1.091h3.806
				c0.6,0,1.086,0.488,1.086,1.091C1103.932,206.854,1103.446,207.339,1102.846,207.339z"/>
		</g>
	</g>
	<g clip-path="url(#SVGID_2_)">
		<path fill="#136296" d="M1057.496,58.764c-0.005,0-0.015,0-0.021,0c-18.297-0.382-31.956-5.517-40.602-15.257
			c-11.171-12.584-9.785-28.124-9.721-28.779c0.053-0.555,0.521-0.979,1.081-0.979c19.556,0,33.769,5.076,42.24,15.087
			c10.693,12.639,8.205,28.358,8.094,29.021C1058.481,58.382,1058.025,58.764,1057.496,58.764z M1009.266,15.926
			c-0.097,3.561,0.267,16.053,9.256,26.163c8.071,9.078,20.858,13.946,38.016,14.475c0.342-3.502,0.873-16.18-7.742-26.342
			C1040.903,20.903,1027.608,16.1,1009.266,15.926z"/>
	</g>
	<g clip-path="url(#SVGID_2_)">
		<path fill="#136296" d="M1057.496,58.764c-0.285,0-0.562-0.115-0.768-0.317c-0.234-0.238-0.35-0.57-0.312-0.901
			c0.053-0.437,5.91-43.797,59.796-43.797c0.573,0,1.05,0.446,1.082,1.022c0.024,0.376,0.479,9.353-6.736,19.335
			c-6.579,9.098-21.101,20.761-52.93,24.652C1057.585,58.762,1057.54,58.764,1057.496,58.764z M1115.113,15.93
			c-20.963,0.238-37.339,7.454-47.404,20.895c-6.097,8.139-8.244,16.38-8.889,19.588
			C1110.774,49.561,1114.833,21.659,1115.113,15.93z"/>
	</g>
	<g clip-path="url(#SVGID_2_)">
		<path fill="#136296" d="M1008.162,118.339c-0.227,0-0.451-0.068-0.637-0.206c-0.285-0.202-0.45-0.529-0.45-0.881
			c0-22.064,5.783-38.541,17.191-48.964c14.479-13.231,32.566-11.765,33.326-11.696c0.584,0.055,1.021,0.56,0.989,1.146
			c-2.509,44.407-49.606,60.391-50.081,60.548C1008.389,118.323,1008.277,118.339,1008.162,118.339z M1055.587,58.703
			c-4.883,0-18.699,0.98-29.876,11.209c-10.657,9.754-16.188,25.149-16.452,45.776c7.753-3.018,44.27-19.189,47.081-56.975
			C1056.12,58.707,1055.867,58.703,1055.587,58.703z"/>
	</g>
	<g clip-path="url(#SVGID_2_)">
		<path fill="#F2C6A1" d="M1062.998,56.903l-0.008,0.002c-1.771,0.285-3.6,0.542-5.49,0.772c-0.134,2.373-0.404,4.66-0.78,6.87
			l0.78,0.198c34.064,35.042,66.319,98.716,66.319,98.716c9.6-11.36,23.388-22.05,43.021-27.818v-0.005
			C1121.408,88.225,1062.998,56.903,1062.998,56.903z"/>
		<g>
			<path fill="#6AC9CC" d="M1057.496,57.675c0,0,7.183-42.839-49.262-42.839C1008.234,14.835,1004.135,56.56,1057.496,57.675z"/>
			<path fill="#6AC9CC" d="M1057.496,57.675c0,0,5.173-42.839,58.717-42.839C1116.213,14.835,1118.357,50.237,1057.496,57.675z"/>
			<path fill="#6AC9CC" d="M1057.496,57.675c0,0-49.332-4.464-49.332,59.577C1008.162,117.252,1055.003,101.856,1057.496,57.675z"/>
			<g>
				<path fill="#136296" d="M1123.819,164.548c-0.042,0-0.085-0.004-0.129-0.008c-0.359-0.04-0.677-0.263-0.843-0.586
					c-0.32-0.639-32.435-63.664-65.918-98.233l-0.48-0.124c-0.55-0.139-0.898-0.676-0.804-1.236
					c0.384-2.249,0.639-4.517,0.766-6.747c0.03-0.525,0.43-0.953,0.951-1.018c1.851-0.226,3.683-0.482,5.45-0.763
					c0.238-0.042,0.486,0,0.694,0.113c0.586,0.315,59.085,31.948,104.116,78.941c0.263,0.274,0.363,0.667,0.265,1.034
					c-0.097,0.368-0.38,0.654-0.743,0.764c-17.019,5.001-31.318,14.245-42.501,27.479
					C1124.439,164.406,1124.135,164.548,1123.819,164.548z M1057.946,63.751c0.123,0.057,0.236,0.133,0.329,0.234
					c30.952,31.837,60.734,87.861,65.769,97.541c10.918-12.472,24.621-21.348,40.781-26.413
					c-42.88-44.242-97.347-74.521-102.023-77.079c-1.399,0.218-2.834,0.424-4.275,0.61
					C1058.404,60.337,1058.211,62.048,1057.946,63.751z"/>
			</g>
		</g>
	</g>
	<g clip-path="url(#SVGID_2_)">
		<path fill="#F2C6A1" d="M1205.036,90.5l-0.006,0.001c-1.233,0.199-2.507,0.377-3.824,0.538c-0.093,1.653-0.281,3.245-0.543,4.785
			l0.543,0.138c23.727,24.408,46.193,68.758,46.193,68.758c6.686-7.913,16.289-15.358,29.965-19.376v-0.004
			C1245.719,112.316,1205.036,90.5,1205.036,90.5z"/>
		<g>
			<path fill="#6AC9CC" d="M1201.204,91.038c0,0,5.002-29.838-34.313-29.838C1166.891,61.199,1164.037,90.261,1201.204,91.038z"/>
			<path fill="#6AC9CC" d="M1201.204,91.038c0,0,3.603-29.838,40.896-29.838C1242.1,61.199,1243.594,85.857,1201.204,91.038z"/>
			<path fill="#6AC9CC" d="M1201.204,91.038c0,0-34.361-3.109-34.361,41.497C1166.842,132.534,1199.467,121.811,1201.204,91.038z"/>
			<g>
				<path fill="#136296" d="M1247.399,165.477c-0.029,0-0.06-0.003-0.09-0.006c-0.251-0.027-0.472-0.183-0.587-0.407
					c-0.224-0.445-22.592-44.343-45.913-68.422l-0.335-0.086c-0.383-0.097-0.626-0.471-0.56-0.861
					c0.267-1.565,0.444-3.146,0.533-4.699c0.021-0.366,0.299-0.664,0.662-0.709c1.289-0.157,2.565-0.336,3.796-0.531
					c0.166-0.03,0.339,0,0.484,0.079c0.408,0.22,41.153,22.252,72.519,54.984c0.183,0.19,0.253,0.464,0.185,0.72
					c-0.067,0.257-0.265,0.456-0.518,0.532c-11.854,3.483-21.814,9.922-29.604,19.14
					C1247.831,165.378,1247.619,165.477,1247.399,165.477z M1201.517,95.271c0.085,0.039,0.164,0.092,0.229,0.162
					c21.559,22.176,42.303,61.197,45.81,67.939c7.604-8.687,17.148-14.869,28.404-18.397
					c-29.866-30.814-67.804-51.905-71.061-53.687c-0.975,0.152-1.975,0.296-2.979,0.425
					C1201.836,92.892,1201.701,94.084,1201.517,95.271z"/>
			</g>
		</g>
	</g>
	<g clip-path="url(#SVGID_2_)">
		<path fill="#F2C6A1" d="M1158.55,180.752h-0.003c-0.663,0.107-1.348,0.203-2.056,0.29c-0.05,0.888-0.151,1.743-0.292,2.571
			l0.292,0.074c12.752,13.118,24.828,36.955,24.828,36.955c3.593-4.253,8.755-8.254,16.105-10.414v-0.002
			C1180.416,192.478,1158.55,180.752,1158.55,180.752z"/>
		<g>
			<path fill="#6AC9CC" d="M1156.49,181.041c0,0,2.688-16.038-18.442-16.038C1138.048,165.003,1136.513,180.623,1156.49,181.041z"/>
			<path fill="#6AC9CC" d="M1156.49,181.041c0,0,1.936-16.038,21.98-16.038C1178.47,165.003,1179.274,178.256,1156.49,181.041z"/>
			<path fill="#6AC9CC" d="M1156.49,181.041c0,0-18.469-1.672-18.469,22.303C1138.02,203.344,1155.555,197.58,1156.49,181.041z"/>
			<g>
				<path fill="#136296" d="M1181.319,221.05c-0.016,0-0.032-0.002-0.049-0.003c-0.135-0.015-0.253-0.099-0.315-0.219
					c-0.12-0.239-12.143-23.834-24.677-36.775l-0.181-0.047c-0.206-0.052-0.336-0.253-0.301-0.463
					c0.144-0.841,0.239-1.69,0.287-2.525c0.011-0.196,0.16-0.357,0.355-0.381c0.693-0.085,1.379-0.181,2.04-0.286
					c0.09-0.016,0.183,0,0.261,0.042c0.22,0.119,22.119,11.961,38.978,29.554c0.098,0.102,0.136,0.249,0.099,0.387
					c-0.036,0.138-0.142,0.245-0.278,0.286c-6.371,1.872-11.725,5.332-15.911,10.287
					C1181.551,220.997,1181.437,221.05,1181.319,221.05z M1156.658,183.315c0.046,0.021,0.089,0.05,0.123,0.087
					c11.587,11.919,22.737,32.893,24.622,36.517c4.087-4.669,9.217-7.992,15.267-9.889c-16.053-16.562-36.443-27.897-38.194-28.855
					c-0.523,0.082-1.061,0.159-1.601,0.229C1156.829,182.037,1156.757,182.678,1156.658,183.315z"/>
			</g>
		</g>
	</g>
	<g clip-path="url(#SVGID_2_)">
		<path fill="#F2C6A1" d="M1349.879,148.359l-0.007,0.001c-1.391,0.225-2.825,0.426-4.311,0.606
			c-0.104,1.862-0.316,3.657-0.611,5.393l0.611,0.155c26.741,27.509,52.062,77.492,52.062,77.492
			c7.535-8.92,18.358-17.311,33.771-21.838v-0.004C1395.73,172.946,1349.879,148.359,1349.879,148.359z"/>
		<g>
			<path fill="#6AC9CC" d="M1345.559,148.965c0,0,5.638-33.629-38.671-33.629C1306.888,115.336,1303.672,148.09,1345.559,148.965z"
				/>
			<path fill="#6AC9CC" d="M1345.559,148.965c0,0,4.061-33.629,46.092-33.629C1391.651,115.336,1393.335,143.126,1345.559,148.965z"
				/>
			<path fill="#6AC9CC" d="M1345.559,148.965c0,0-38.726-3.504-38.726,46.767C1306.832,195.731,1343.601,183.646,1345.559,148.965z"
				/>
			<g>
				<path fill="#136296" d="M1397.623,232.858c-0.033,0-0.067-0.002-0.102-0.006c-0.282-0.031-0.531-0.207-0.661-0.459
					c-0.252-0.502-25.462-49.976-51.745-77.113l-0.378-0.097c-0.432-0.108-0.705-0.531-0.63-0.97c0.3-1.766,0.5-3.546,0.601-5.297
					c0.022-0.412,0.337-0.748,0.746-0.799c1.453-0.178,2.892-0.379,4.278-0.6c0.187-0.033,0.382,0,0.546,0.089
					c0.46,0.247,46.381,25.079,81.73,61.968c0.205,0.215,0.285,0.523,0.208,0.811c-0.076,0.291-0.299,0.516-0.584,0.602
					c-13.36,3.926-24.585,11.182-33.363,21.57C1398.109,232.747,1397.871,232.858,1397.623,232.858z M1345.913,153.735
					c0.096,0.043,0.185,0.104,0.258,0.184c24.297,24.991,47.676,68.969,51.628,76.568c8.571-9.791,19.327-16.758,32.013-20.734
					c-33.66-34.729-76.417-58.498-80.087-60.506c-1.099,0.172-2.226,0.334-3.357,0.479
					C1346.271,151.055,1346.12,152.397,1345.913,153.735z"/>
			</g>
		</g>
	</g>
	<g clip-path="url(#SVGID_2_)">
		<path fill="#FEE36F" d="M820.292,112.54c9.667-2.509,21.405,4.579,21.405,4.579s11.903,6.808,14.414,16.474
			c0,0,18.04-38.07,9.881-57.803C844.778,78.263,820.292,112.542,820.292,112.54z"/>
		<path fill="#3792CF" d="M856.11,133.593c21.775-5.274,32.451,12.024,32.451,12.024c14.169-49.319-22.57-69.827-22.57-69.827
			C874.15,95.523,856.11,133.593,856.11,133.593z"/>
		<path fill="#F0566F" d="M820.292,112.542c-5.986-21.588-26.291-22.5-26.291-22.5c36.198-36.373,71.99-14.252,71.99-14.252
			C844.778,78.263,820.292,112.542,820.292,112.542z"/>
		<path fill="#FFFFFF" d="M869.837,78.425c0.06-0.089,0.121-0.178,0.177-0.269c1.306-2.223,0.563-5.081-1.658-6.387
			c-2.222-1.307-5.08-0.564-6.387,1.658c-0.055,0.092-0.102,0.189-0.149,0.284c2.679,1.157,4.171,2.079,4.171,2.079
			S867.521,76.646,869.837,78.425z"/>
		<g>
			<path fill="#136296" d="M856.036,134.384c-0.333-0.029-0.612-0.266-0.696-0.592c-2.394-9.223-13.921-15.915-14.054-15.99
				c-0.115-0.068-11.571-6.883-20.793-4.489c-0.322,0.086-0.668-0.043-0.858-0.319c-0.189-0.275-0.187-0.643,0.009-0.914
				c1.008-1.412,24.938-34.598,46.254-37.081c0.361-0.044,0.693,0.159,0.83,0.488c8.201,19.831-9.153,56.879-9.897,58.446
				c-0.132,0.28-0.415,0.456-0.72,0.456C856.085,134.389,856.06,134.389,856.036,134.384z M822.159,111.37
				c9.366-1.241,19.493,4.789,19.934,5.059c0.464,0.264,10.659,6.176,14.134,14.963c3.397-7.758,15.665-37.884,9.252-54.731
				C847.644,79.254,827.284,104.629,822.159,111.37z"/>
		</g>
		<g>
			<path fill="#136296" d="M887.885,146.034c-0.104-0.169-10.61-16.745-31.585-11.668c-0.298,0.073-0.612-0.032-0.806-0.271
				c-0.194-0.237-0.233-0.565-0.102-0.843c0.178-0.377,17.795-37.972,9.863-57.155c-0.131-0.314-0.047-0.675,0.206-0.9
				c0.254-0.226,0.621-0.266,0.917-0.101c0.382,0.212,9.441,5.35,16.876,16.676c6.856,10.444,13.476,28.299,6.071,54.064
				c-0.087,0.305-0.345,0.526-0.657,0.568c-0.036,0.009-0.072,0.009-0.108,0.009C888.286,146.413,888.03,146.271,887.885,146.034z
				 M857.502,132.472c17.382-3.441,27.638,7.381,30.734,11.337c6.514-24.294,0.237-41.157-6.271-51.1
				c-5.208-7.957-11.377-12.854-14.439-14.98C873.047,95.896,860.632,125.48,857.502,132.472z"/>
		</g>
		<g>
			<path fill="#136296" d="M820.15,113.324c-0.302-0.053-0.546-0.274-0.627-0.57c-5.752-20.757-24.754-21.88-25.561-21.918
				c-0.315-0.015-0.592-0.213-0.706-0.506c-0.114-0.294-0.044-0.627,0.177-0.852c18.912-19.002,37.736-21.908,50.192-20.997
				c13.513,0.988,22.411,6.4,22.782,6.631c0.288,0.177,0.432,0.521,0.359,0.851c-0.074,0.333-0.35,0.58-0.686,0.62
				c-20.617,2.402-44.901,36.081-45.143,36.422c-0.15,0.211-0.394,0.334-0.647,0.334C820.244,113.338,820.2,113.335,820.15,113.324z
				 M843.511,70.07c-11.874-0.868-29.688,1.839-47.773,19.375c4.962,0.78,19.409,4.474,24.858,21.334
				c4.585-6.134,24.396-31.376,42.958-35.387C860.219,73.756,852.978,70.761,843.511,70.07z"/>
		</g>
		<g>
			<path fill="#136296" d="M869.352,79.059c-2.232-1.715-3.734-2.563-3.749-2.571c-0.009-0.006-0.021-0.009-0.029-0.017
				c-0.014-0.007-1.483-0.91-4.069-2.025c-0.2-0.086-0.343-0.28-0.417-0.485c-0.076-0.206-0.049-0.461,0.049-0.657
				c0.045-0.095,0.093-0.189,0.146-0.278c0.739-1.257,1.924-2.153,3.336-2.52c1.413-0.367,2.883-0.161,4.14,0.579
				c2.595,1.525,3.467,4.879,1.94,7.476c-0.057,0.098-0.12,0.191-0.207,0.315c-0.124,0.181-0.316,0.302-0.533,0.336
				c-0.041,0.006-0.083,0.01-0.124,0.01C869.66,79.221,869.49,79.164,869.352,79.059z M865.019,72.045
				c-0.812,0.213-1.519,0.669-2.036,1.311c2.068,0.941,3.259,1.656,3.411,1.749c0.156,0.088,1.358,0.778,3.186,2.13
				c0.703-1.746,0.041-3.798-1.629-4.779c-0.602-0.355-1.273-0.536-1.955-0.536C865.672,71.921,865.342,71.961,865.019,72.045z
				 M865.983,75.79h0.008H865.983z"/>
		</g>
		<g>
			<path fill="#136296" d="M810.943,168.923c-0.377-0.229-0.503-0.717-0.279-1.092l30.347-51.118
				c0.226-0.379,0.714-0.503,1.092-0.278c0.378,0.225,0.503,0.713,0.279,1.092l-30.347,51.115c-0.149,0.251-0.414,0.391-0.688,0.391
				C811.209,169.032,811.069,168.996,810.943,168.923z"/>
		</g>
	</g>
	<g clip-path="url(#SVGID_2_)">
		<path fill="#FEE36F" d="M916.133,162.159c5.282-1.37,11.695,2.502,11.695,2.502s6.504,3.72,7.876,9.001
			c0,0,9.856-20.801,5.399-31.582C929.512,143.431,916.133,162.16,916.133,162.159z"/>
		<path fill="#3792CF" d="M935.704,173.662c11.898-2.882,17.73,6.57,17.73,6.57c7.742-26.947-12.332-38.152-12.332-38.152
			C945.561,152.861,935.704,173.662,935.704,173.662z"/>
		<path fill="#F0566F" d="M916.133,162.16c-3.271-11.795-14.365-12.293-14.365-12.293c19.779-19.874,39.335-7.787,39.335-7.787
			C929.512,143.431,916.133,162.16,916.133,162.16z"/>
		<path fill="#FFFFFF" d="M943.204,143.52c0.033-0.049,0.066-0.097,0.097-0.147c0.713-1.214,0.308-2.775-0.906-3.489
			c-1.214-0.714-2.775-0.309-3.489,0.906c-0.03,0.05-0.056,0.104-0.083,0.155c1.464,0.632,2.28,1.136,2.28,1.136
			S941.939,142.547,943.204,143.52z"/>
		<g>
			<path fill="#136296" d="M935.664,174.095c-0.183-0.016-0.335-0.146-0.38-0.323c-1.308-5.039-7.607-8.696-7.679-8.737
				c-0.063-0.037-6.322-3.761-11.361-2.452c-0.176,0.047-0.365-0.023-0.469-0.175c-0.104-0.15-0.102-0.352,0.005-0.5
				c0.551-0.771,13.625-18.903,25.273-20.26c0.197-0.024,0.379,0.087,0.454,0.267c4.48,10.835-5.002,31.078-5.408,31.935
				c-0.072,0.152-0.227,0.249-0.393,0.249C935.69,174.098,935.677,174.098,935.664,174.095z M917.154,161.521
				c5.117-0.679,10.651,2.616,10.892,2.764c0.253,0.145,5.824,3.374,7.723,8.176c1.856-4.239,8.559-20.699,5.056-29.905
				C931.078,143.973,919.954,157.837,917.154,161.521z"/>
		</g>
		<g>
			<path fill="#136296" d="M953.065,180.46c-0.057-0.092-5.797-9.148-17.257-6.375c-0.164,0.04-0.334-0.018-0.441-0.148
				c-0.105-0.129-0.127-0.309-0.055-0.46c0.097-0.206,9.723-20.748,5.389-31.229c-0.072-0.172-0.026-0.368,0.112-0.491
				c0.139-0.124,0.339-0.146,0.501-0.056c0.209,0.116,5.159,2.924,9.222,9.112c3.746,5.706,7.363,15.462,3.317,29.54
				c-0.048,0.166-0.188,0.287-0.359,0.311c-0.02,0.004-0.04,0.004-0.059,0.004C953.285,180.667,953.144,180.59,953.065,180.46z
				 M936.464,173.05c9.498-1.88,15.102,4.033,16.793,6.194c3.559-13.273,0.129-22.487-3.427-27.92
				c-2.846-4.348-6.216-7.023-7.89-8.186C944.958,153.065,938.175,169.23,936.464,173.05z"/>
		</g>
		<g>
			<path fill="#136296" d="M916.055,162.588c-0.165-0.028-0.298-0.149-0.342-0.312c-3.143-11.342-13.526-11.955-13.966-11.977
				c-0.172-0.007-0.323-0.116-0.385-0.276c-0.063-0.16-0.024-0.343,0.097-0.465c10.333-10.383,20.619-11.971,27.425-11.473
				c7.383,0.54,12.245,3.497,12.448,3.623c0.158,0.097,0.236,0.284,0.196,0.465c-0.041,0.182-0.191,0.316-0.375,0.339
				c-11.265,1.313-24.533,19.714-24.666,19.9c-0.082,0.115-0.215,0.183-0.354,0.183
				C916.107,162.596,916.083,162.594,916.055,162.588z M928.82,138.954c-6.488-0.474-16.221,1.005-26.103,10.586
				c2.711,0.427,10.604,2.445,13.582,11.657c2.505-3.352,13.33-17.144,23.472-19.335
				C937.949,140.968,933.992,139.332,928.82,138.954z"/>
		</g>
		<g>
			<path fill="#136296" d="M942.939,143.865c-1.22-0.937-2.041-1.399-2.048-1.404c-0.005-0.004-0.011-0.005-0.016-0.01
				c-0.007-0.004-0.81-0.497-2.223-1.106c-0.109-0.047-0.188-0.152-0.228-0.265c-0.042-0.112-0.027-0.253,0.026-0.359
				c0.025-0.052,0.051-0.104,0.08-0.152c0.405-0.687,1.051-1.176,1.823-1.376c0.772-0.2,1.575-0.088,2.263,0.316
				c1.418,0.833,1.894,2.666,1.06,4.084c-0.031,0.054-0.065,0.104-0.113,0.173c-0.068,0.099-0.173,0.164-0.291,0.184
				c-0.022,0.003-0.046,0.006-0.068,0.006C943.108,143.955,943.014,143.923,942.939,143.865z M940.572,140.033
				c-0.443,0.117-0.83,0.366-1.112,0.717c1.13,0.514,1.78,0.904,1.863,0.956c0.085,0.048,0.742,0.425,1.741,1.164
				c0.383-0.954,0.021-2.075-0.89-2.611c-0.329-0.194-0.695-0.293-1.068-0.293C940.928,139.966,940.748,139.987,940.572,140.033z
				 M941.098,142.08h0.005H941.098z"/>
		</g>
		<g>
			<path fill="#136296" d="M911.025,192.967c-0.206-0.125-0.274-0.392-0.152-0.597l16.582-27.931
				c0.123-0.207,0.39-0.274,0.596-0.152c0.207,0.123,0.275,0.39,0.153,0.597l-16.582,27.929c-0.082,0.138-0.226,0.214-0.376,0.214
				C911.171,193.026,911.094,193.007,911.025,192.967z"/>
		</g>
	</g>
	<g clip-path="url(#SVGID_2_)">
		<path fill="#FEE36F" d="M1104.686,145.296c-4.457,10.781,5.399,31.582,5.399,31.582c1.372-5.281,7.876-9.001,7.876-9.001
			s6.413-3.872,11.695-2.502C1129.657,165.376,1116.278,146.646,1104.686,145.296z"/>
		<path fill="#3792CF" d="M1104.686,145.296c0,0-20.072,11.205-12.331,38.152c0,0,5.833-9.452,17.73-6.57
			C1110.086,176.878,1100.229,156.077,1104.686,145.296z"/>
		<path fill="#F0566F" d="M1104.686,145.296c0,0,19.557-12.087,39.336,7.787c0,0-11.095,0.498-14.365,12.293
			C1129.657,165.376,1116.278,146.646,1104.686,145.296z"/>
		<path fill="#FFFFFF" d="M1104.686,145.296c0,0,0.816-0.504,2.28-1.136c-0.026-0.052-0.052-0.105-0.083-0.155
			c-0.713-1.215-2.274-1.62-3.488-0.906s-1.619,2.275-0.906,3.489c0.031,0.051,0.063,0.099,0.097,0.147
			C1103.851,145.763,1104.686,145.296,1104.686,145.296z"/>
		<g>
			<path fill="#136296" d="M1110.086,177.313c-0.167,0-0.321-0.097-0.394-0.249c-0.406-0.856-9.889-21.1-5.408-31.935
				c0.075-0.18,0.257-0.291,0.454-0.267c11.647,1.356,24.722,19.488,25.272,20.26c0.107,0.148,0.109,0.35,0.006,0.5
				c-0.104,0.151-0.293,0.222-0.469,0.175c-5.039-1.309-11.299,2.415-11.361,2.452c-0.072,0.041-6.371,3.698-7.68,8.737
				c-0.045,0.178-0.197,0.308-0.381,0.323C1110.114,177.313,1110.1,177.313,1110.086,177.313z M1104.967,145.771
				c-3.503,9.206,3.199,25.666,5.056,29.905c1.898-4.802,7.469-8.031,7.723-8.176c0.24-0.147,5.774-3.442,10.892-2.764
				C1125.837,161.053,1114.712,147.188,1104.967,145.771z"/>
		</g>
		<g>
			<path fill="#136296" d="M1092.355,183.883c-0.02,0-0.04,0-0.06-0.004c-0.17-0.023-0.311-0.145-0.359-0.311
				c-4.045-14.078-0.428-23.834,3.318-29.54c4.063-6.188,9.012-8.996,9.221-9.112c0.162-0.09,0.363-0.068,0.502,0.056
				c0.138,0.123,0.184,0.319,0.111,0.491c-4.333,10.481,5.293,31.023,5.39,31.229c0.071,0.151,0.05,0.331-0.056,0.46
				c-0.105,0.131-0.277,0.188-0.44,0.148c-11.46-2.773-17.2,6.283-17.257,6.375C1092.645,183.806,1092.505,183.883,1092.355,183.883
				z M1103.849,146.354c-1.673,1.162-5.044,3.838-7.89,8.186c-3.556,5.433-6.986,14.646-3.427,27.92
				c1.691-2.161,7.296-8.074,16.793-6.194C1107.616,172.446,1100.832,156.281,1103.849,146.354z"/>
		</g>
		<g>
			<path fill="#136296" d="M1129.657,165.812c-0.139,0-0.271-0.067-0.354-0.183c-0.133-0.187-13.4-18.588-24.666-19.9
				c-0.184-0.022-0.334-0.157-0.375-0.339c-0.039-0.181,0.039-0.368,0.197-0.465c0.203-0.126,5.064-3.083,12.447-3.623
				c6.807-0.498,17.092,1.09,27.425,11.473c0.121,0.122,0.159,0.305,0.097,0.465s-0.213,0.27-0.385,0.276
				c-0.441,0.021-10.824,0.635-13.967,11.977c-0.044,0.162-0.178,0.283-0.342,0.312
				C1129.707,165.81,1129.682,165.812,1129.657,165.812z M1106.018,145.078c10.143,2.191,20.967,15.983,23.473,19.335
				c2.978-9.212,10.871-11.23,13.582-11.657c-9.882-9.581-19.615-11.06-26.104-10.586
				C1111.798,142.548,1107.841,144.184,1106.018,145.078z"/>
		</g>
		<g>
			<path fill="#136296" d="M1102.587,147.171c-0.022,0-0.046-0.003-0.068-0.006c-0.117-0.02-0.223-0.085-0.291-0.184
				c-0.047-0.068-0.081-0.119-0.112-0.173c-0.835-1.418-0.358-3.251,1.06-4.084c0.688-0.404,1.49-0.517,2.263-0.316
				c0.771,0.2,1.418,0.689,1.823,1.376c0.028,0.049,0.055,0.101,0.08,0.152c0.053,0.106,0.068,0.247,0.025,0.359
				c-0.04,0.112-0.119,0.218-0.228,0.265c-1.413,0.609-2.216,1.103-2.224,1.106c-0.005,0.005-0.011,0.006-0.016,0.01
				c-0.008,0.005-0.828,0.468-2.049,1.404C1102.776,147.139,1102.682,147.171,1102.587,147.171z M1104.684,143.182
				c-0.373,0-0.739,0.099-1.068,0.293c-0.912,0.536-1.273,1.657-0.891,2.611c1-0.739,1.656-1.116,1.742-1.164
				c0.083-0.052,0.732-0.442,1.863-0.956c-0.283-0.351-0.669-0.6-1.112-0.717C1105.042,143.203,1104.862,143.182,1104.684,143.182z
				 M1104.686,145.296h0.006H1104.686z"/>
		</g>
		<g>
			<path fill="#136296" d="M1134.545,196.242c-0.149,0-0.294-0.076-0.376-0.214l-16.582-27.929
				c-0.122-0.207-0.054-0.474,0.153-0.597c0.206-0.122,0.474-0.055,0.597,0.152l16.581,27.931c0.122,0.205,0.054,0.472-0.152,0.597
				C1134.696,196.223,1134.62,196.242,1134.545,196.242z"/>
		</g>
	</g>
</g>
</svg>
