<?xml version="1.0" encoding="utf-8"?>
<!-- Generator: Adobe Illustrator 16.0.0, SVG Export Plug-In . SVG Version: 6.00 Build 0)  -->
<!DOCTYPE svg PUBLIC "-//W3C//DTD SVG 1.1//EN" "http://www.w3.org/Graphics/SVG/1.1/DTD/svg11.dtd">
<svg version="1.1" id="Capa_1" xmlns="http://www.w3.org/2000/svg" xmlns:xlink="http://www.w3.org/1999/xlink" x="0px" y="0px"
	 width="1920px" height="204.338px" viewBox="0 0 1920 204.338" enable-background="new 0 0 1920 204.338" xml:space="preserve">
<g>
	<defs>
		<rect id="SVGID_1_" y="-274.519" width="1920" height="478.857"/>
	</defs>
	<clipPath id="SVGID_2_">
		<use xlink:href="#SVGID_1_"  overflow="visible"/>
	</clipPath>
	<g clip-path="url(#SVGID_2_)">
		<defs>
			<rect id="SVGID_3_" y="-274.519" width="1920" height="478.857"/>
		</defs>
		<clipPath id="SVGID_4_">
			<use xlink:href="#SVGID_3_"  overflow="visible"/>
		</clipPath>
		<rect y="-274.519" clip-path="url(#SVGID_4_)" fill="none" width="1920" height="478.857"/>
	</g>
	<g clip-path="url(#SVGID_2_)">
		<defs>
			<rect id="SVGID_5_" y="-274.519" width="1920" height="478.857"/>
		</defs>
		<clipPath id="SVGID_6_">
			<use xlink:href="#SVGID_5_"  overflow="visible"/>
		</clipPath>
		<rect y="-274.519" clip-path="url(#SVGID_6_)" fill="none" width="1920" height="478.857"/>
	</g>
	<g clip-path="url(#SVGID_2_)">
		<defs>
			<rect id="SVGID_7_" y="-274.519" width="1920" height="478.857"/>
		</defs>
		<clipPath id="SVGID_8_">
			<use xlink:href="#SVGID_7_"  overflow="visible"/>
		</clipPath>
		<rect y="-274.519" clip-path="url(#SVGID_8_)" fill="none" width="1920" height="478.857"/>
	</g>
	<g clip-path="url(#SVGID_2_)">
		<defs>
			<rect id="SVGID_9_" y="-274.519" width="1920" height="478.857"/>
		</defs>
		<clipPath id="SVGID_10_">
			<use xlink:href="#SVGID_9_"  overflow="visible"/>
		</clipPath>
		<rect y="-274.519" clip-path="url(#SVGID_10_)" fill="none" width="1920" height="478.857"/>
	</g>
	<g clip-path="url(#SVGID_2_)">
		<defs>
			<rect id="SVGID_11_" y="-274.519" width="1920" height="478.857"/>
		</defs>
		<clipPath id="SVGID_12_">
			<use xlink:href="#SVGID_11_"  overflow="visible"/>
		</clipPath>
		<rect y="-274.519" clip-path="url(#SVGID_12_)" fill="none" width="1920" height="478.857"/>
	</g>
	<g clip-path="url(#SVGID_2_)">
		<defs>
			<rect id="SVGID_13_" y="-274.519" width="1920" height="478.857"/>
		</defs>
		<clipPath id="SVGID_14_">
			<use xlink:href="#SVGID_13_"  overflow="visible"/>
		</clipPath>
		<rect y="-274.519" clip-path="url(#SVGID_14_)" fill="none" width="1920" height="478.857"/>
	</g>
	<g clip-path="url(#SVGID_2_)">
		<defs>
			<rect id="SVGID_15_" y="-274.519" width="1920" height="478.857"/>
		</defs>
		<clipPath id="SVGID_16_">
			<use xlink:href="#SVGID_15_"  overflow="visible"/>
		</clipPath>
		<rect y="-274.519" clip-path="url(#SVGID_16_)" fill="none" width="1920" height="478.857"/>
	</g>
	<g clip-path="url(#SVGID_2_)">
		<defs>
			<rect id="SVGID_17_" y="-274.519" width="1920" height="478.857"/>
		</defs>
		<clipPath id="SVGID_18_">
			<use xlink:href="#SVGID_17_"  overflow="visible"/>
		</clipPath>
		<rect y="-274.519" clip-path="url(#SVGID_18_)" fill="none" width="1920" height="478.857"/>
	</g>
	<g clip-path="url(#SVGID_2_)">
		<defs>
			<rect id="SVGID_19_" y="-274.519" width="1920" height="478.857"/>
		</defs>
		<clipPath id="SVGID_20_">
			<use xlink:href="#SVGID_19_"  overflow="visible"/>
		</clipPath>
		<rect y="-274.519" clip-path="url(#SVGID_20_)" fill="none" width="1920" height="478.857"/>
	</g>
	<g clip-path="url(#SVGID_2_)">
		<defs>
			<rect id="SVGID_21_" y="-274.519" width="1920" height="478.857"/>
		</defs>
		<clipPath id="SVGID_22_">
			<use xlink:href="#SVGID_21_"  overflow="visible"/>
		</clipPath>
		<rect y="-274.519" clip-path="url(#SVGID_22_)" fill="none" width="1920" height="478.857"/>
	</g>
	<g clip-path="url(#SVGID_2_)">
		<defs>
			<rect id="SVGID_23_" y="-274.519" width="1920" height="478.857"/>
		</defs>
		<clipPath id="SVGID_24_">
			<use xlink:href="#SVGID_23_"  overflow="visible"/>
		</clipPath>
		<rect y="-274.519" clip-path="url(#SVGID_24_)" fill="none" width="1920" height="478.857"/>
	</g>
	<g clip-path="url(#SVGID_2_)">
		<defs>
			<rect id="SVGID_25_" y="-274.519" width="1920" height="478.857"/>
		</defs>
		<clipPath id="SVGID_26_">
			<use xlink:href="#SVGID_25_"  overflow="visible"/>
		</clipPath>
		<rect y="-274.519" clip-path="url(#SVGID_26_)" fill="none" width="1920" height="478.857"/>
	</g>
	<g clip-path="url(#SVGID_2_)">
		<defs>
			<rect id="SVGID_27_" y="-274.519" width="1920" height="478.857"/>
		</defs>
		<clipPath id="SVGID_28_">
			<use xlink:href="#SVGID_27_"  overflow="visible"/>
		</clipPath>
		<rect y="-274.519" clip-path="url(#SVGID_28_)" fill="none" width="1920" height="478.857"/>
	</g>
	<g clip-path="url(#SVGID_2_)">
		<defs>
			<rect id="SVGID_29_" y="-274.519" width="1920" height="478.857"/>
		</defs>
		<clipPath id="SVGID_30_">
			<use xlink:href="#SVGID_29_"  overflow="visible"/>
		</clipPath>
		<rect y="-274.519" clip-path="url(#SVGID_30_)" fill="none" width="1920" height="478.857"/>
	</g>
	<g clip-path="url(#SVGID_2_)">
		<defs>
			<rect id="SVGID_31_" y="-274.519" width="1920" height="478.857"/>
		</defs>
		<clipPath id="SVGID_32_">
			<use xlink:href="#SVGID_31_"  overflow="visible"/>
		</clipPath>
		<rect y="-274.519" clip-path="url(#SVGID_32_)" fill="none" width="1920" height="478.857"/>
	</g>
	<g clip-path="url(#SVGID_2_)">
		<defs>
			<rect id="SVGID_33_" y="-274.519" width="1920" height="478.857"/>
		</defs>
		<clipPath id="SVGID_34_">
			<use xlink:href="#SVGID_33_"  overflow="visible"/>
		</clipPath>
		<rect y="-274.519" clip-path="url(#SVGID_34_)" fill="none" width="1920" height="478.857"/>
	</g>
	<g clip-path="url(#SVGID_2_)">
		<path id="path15956" fill="#009688" d="M934.558,1.52L843.36,214.508l-12.734-57.559l-23.322,42.589L794.567,42.966
			c-23.004,56.671-1.773,118.157-129.375,163.479L584.069,71.791c0,0-41.405,113.531-60.142,95.906
			c-47.601-44.749-208.945-67.292-208.945-67.292s94.786,32.083,57.953,106.692c-5.349,10.862-77.963-73.047-77.963-73.047
			s-35.171,113.6-40.88,111.207C356.86,409.396,640.608,519.874,960,520.1c377.01-0.181,694.613-152.894,740.412-356.02
			c-54.6-24.289-48.668-57.974-68.041-87.731l-31.816,128.952L1541.16,76.349l8.48,126.649
			c-41.573-11.81-45.979-29.381-48.779-47.208l-21.202,59.868c-70.784-51.089-56.47-108.777-50.911-165.786l-55.153,160.031
			l-21.202-35.691l-61.501,70.234c-67.999-74.854-60.446-141.498-76.354-210.688l-38.191,188.813l-63.62-31.088
			c28.921,44.566-27.202,52.193-48.793,74.836l6.375-186.509l-74.249,157.722l-36.058-49.502l-23.31,46.05
			C898.791,152.074,924.829,77.779,934.558,1.52z"/>
		<path id="path15958" fill="#00695C" d="M985.441,1.52l91.211,212.988l12.723-57.559l23.336,42.589l12.721-156.572
			c23.019,56.671,1.774,118.157,129.375,163.479l81.123-134.653c0,0,41.406,113.531,60.143,95.906
			c47.601-44.749,208.944-67.292,208.944-67.292s-94.786,32.083-57.953,106.692c5.351,10.862,77.964-73.047,77.964-73.047
			s35.171,113.6,40.881,111.207c-102.77,164.139-386.518,274.616-705.907,274.842c-377.01-0.181-694.599-152.894-740.413-356.02
			c54.599-24.289,48.668-57.973,68.041-87.731L319.446,205.3L378.84,76.348l-8.481,126.649
			c41.573-11.809,45.979-29.381,48.779-47.208l21.202,59.868c70.785-51.09,56.47-108.777,50.913-165.786l55.153,160.032
			l21.202-35.692l61.5,70.233c68.013-74.854,60.446-141.497,76.354-210.687l38.191,188.812l63.634-31.088
			c-28.936,44.567,27.188,52.194,48.778,74.838l-6.375-186.51l74.25,157.722l36.058-49.503l23.322,46.051
			C1021.209,152.074,995.171,77.779,985.441,1.52z"/>
	</g>
</g>
</svg>
