<?xml version="1.0" encoding="utf-8"?>
<!-- Generator: Adobe Illustrator 16.0.0, SVG Export Plug-In . SVG Version: 6.00 Build 0)  -->
<!DOCTYPE svg PUBLIC "-//W3C//DTD SVG 1.1//EN" "http://www.w3.org/Graphics/SVG/1.1/DTD/svg11.dtd">
<svg version="1.1" id="Capa_1" xmlns="http://www.w3.org/2000/svg" xmlns:xlink="http://www.w3.org/1999/xlink" x="0px" y="0px"
	 width="450px" height="95.027px" viewBox="0 0 450 95.027" enable-background="new 0 0 450 95.027" xml:space="preserve">
<g>
	<path fill="#7AC6BF" d="M32.496,89.68c-1.92,1.022-3.758,1.798-5.514,2.328c-1.756,0.532-3.431,0.797-5.024,0.797
		c-2.165,0-3.645-0.603-4.441-1.808c-0.796-1.204-1.195-3.522-1.195-6.953c0-1.756,0.184-7.3,0.551-16.634
		c0.368-9.332,0.552-17.837,0.552-25.516c0-9.843-0.297-17.43-0.888-22.76c-0.593-5.33-1.542-9.179-2.849-11.548
		c2.083-1.103,3.972-1.92,5.667-2.451c1.694-0.53,3.278-0.797,4.748-0.797c2.123,0,3.614,0.613,4.472,1.838
		c0.858,1.226,1.287,3.411,1.287,6.555c0,0.491-0.214,5.566-0.643,15.225c-0.429,9.66-0.644,19.105-0.644,28.335
		c0,9.312,0.307,16.562,0.919,21.748C30.107,83.227,31.107,87.108,32.496,89.68z"/>
	<path fill="#7AC6BF" d="M78.873,24.434c-1.308,0-3.38-0.551-6.218-1.654c-2.839-1.103-5.953-2.613-9.343-4.533
		c-2.288-1.226-4.003-2.552-5.146-3.982c-1.144-1.429-1.715-2.941-1.715-4.534c0-1.552,0.49-2.818,1.47-3.798
		c0.98-0.98,2.287-1.47,3.921-1.47c2.164,0,5.35,2.369,9.557,7.106c1.51,1.675,2.715,2.982,3.614,3.921
		c0.817,0.94,2.104,2.124,3.86,3.553c1.755,1.43,2.634,2.553,2.634,3.369c0,0.695-0.214,1.206-0.644,1.532
		C80.435,24.271,79.771,24.434,78.873,24.434z"/>
	<path fill="#7AC6BF" d="M111.159,32.092c0.939-0.326,1.838-0.561,2.696-0.705c0.857-0.143,1.756-0.215,2.696-0.215
		c2.206,0,3.931,0.583,5.177,1.746c1.245,1.165,1.95,2.849,2.113,5.055c3.227-2.206,6.381-3.839,9.466-4.901
		c3.083-1.062,6.157-1.593,9.22-1.593c2.981,0,5.789,0.582,8.424,1.746c2.634,1.164,5.094,2.91,7.382,5.238
		c3.226-2.328,6.667-4.145,10.323-5.453c3.655-1.307,7.158-1.96,10.507-1.96c7.311,0,12.916,2.124,16.817,6.372
		c3.9,4.248,5.851,10.333,5.851,18.256c0,1.145-0.061,3.412-0.184,6.801c-0.123,3.391-0.184,6.229-0.184,8.516
		c0,5.269,0.246,9.323,0.735,12.161c0.49,2.839,1.287,5.137,2.389,6.893c-2.042,0.979-3.748,1.685-5.115,2.113
		c-1.369,0.429-2.583,0.644-3.646,0.644c-1.92,0-3.237-0.48-3.952-1.44c-0.715-0.959-1.072-2.827-1.072-5.605
		c0-2.532,0.153-6.596,0.459-12.191c0.307-5.595,0.459-9.883,0.459-12.866c0-7.351-1.113-12.659-3.339-15.928
		c-2.227-3.267-5.811-4.901-10.752-4.901c-2.695,0-5.299,0.398-7.811,1.195c-2.512,0.796-5.218,2.114-8.117,3.951
		c0.408,2.492,0.704,5.095,0.888,7.811c0.184,2.718,0.275,6.505,0.275,11.364v6.434c0,5.636,0.204,9.833,0.613,12.59
		c0.408,2.757,1.123,5.075,2.145,6.953c-1.798,0.94-3.391,1.614-4.779,2.021c-1.389,0.409-2.737,0.613-4.044,0.613
		c-1.837,0-3.115-0.511-3.829-1.532c-0.715-1.021-1.072-2.899-1.072-5.636c0-1.471,0.112-4.789,0.337-9.956
		c0.225-5.165,0.337-9.587,0.337-13.264c0-8.657-0.971-14.54-2.91-17.644c-1.94-3.103-5.279-4.656-10.017-4.656
		c-2.491,0-5.023,0.481-7.596,1.44c-2.573,0.96-5.229,2.4-7.964,4.319c-0.083,3.391-0.195,7.729-0.337,13.018
		c-0.144,5.29-0.214,8.567-0.214,9.834c0,5.432,0.245,9.813,0.735,13.141c0.49,3.329,1.265,6.095,2.328,8.301
		c-1.715,0.899-3.288,1.563-4.717,1.991c-1.43,0.429-2.839,0.644-4.228,0.644c-1.879,0-3.166-0.531-3.859-1.594
		c-0.695-1.061-1.042-3.287-1.042-6.677c0-0.981,0.235-5.033,0.705-12.161c0.469-7.126,0.705-13.774,0.705-19.941
		c0-4.861-0.245-8.924-0.735-12.192C112.936,36.973,112.18,34.257,111.159,32.092z"/>
	<path fill="#7AC6BF" d="M271.241,82.634c1.716,0.165,3.421,0.287,5.117,0.368c1.694,0.083,3.378,0.123,5.054,0.123
		c5.881,0,10.516-0.265,13.907-0.797c3.389-0.53,6.187-1.389,8.394-2.573c0.816,1.39,1.418,2.727,1.806,4.014
		c0.389,1.286,0.583,2.583,0.583,3.89c0,1.96-0.716,3.329-2.145,4.104c-1.431,0.777-4.104,1.164-8.026,1.164
		c-1.388,0-4.023-0.062-7.901-0.184c-3.881-0.122-7.046-0.184-9.498-0.184c-3.471,0-6.963,0.082-10.476,0.245
		c-3.514,0.162-5.29,0.244-5.33,0.244c-1.389,0-2.367-0.325-2.939-0.979c-0.573-0.653-0.858-1.797-0.858-3.432
		c0-0.816,0.102-2.939,0.306-6.371c0.736-12.946,1.104-25.24,1.104-36.88c0-10.945-0.306-19.338-0.92-25.18
		c-0.611-5.84-1.612-10.046-3-12.62c1.878-1.021,3.665-1.797,5.359-2.329c1.694-0.53,3.34-0.796,4.933-0.796
		c2.285,0,3.849,0.582,4.687,1.746c0.836,1.164,1.256,3.564,1.256,7.198c0,1.063-0.104,3.881-0.307,8.454
		c-0.736,17.521-1.104,34.063-1.104,49.624V82.634z"/>
	<path fill="#7AC6BF" d="M354.806,83.921c-2.779,3.392-5.759,5.882-8.944,7.474c-3.187,1.594-6.779,2.39-10.782,2.39
		c-6.739,0-11.896-2.03-15.471-6.096c-3.574-4.063-5.359-9.934-5.359-17.613c0-1.633,0.102-4.646,0.306-9.036
		c0.205-4.391,0.307-7.974,0.307-10.753c0-3.715-0.224-6.83-0.674-9.342c-0.449-2.512-1.186-4.707-2.205-6.585
		c1.838-0.898,3.439-1.563,4.81-1.992c1.367-0.429,2.521-0.643,3.46-0.643c1.92,0,3.237,0.481,3.952,1.44
		c0.715,0.96,1.072,2.726,1.072,5.299c0,2.043-0.163,5.953-0.49,11.733c-0.327,5.779-0.489,10.526-0.489,14.243
		c0,7.801,0.939,13.202,2.817,16.204c1.877,3.002,5.125,4.503,9.741,4.503c3.389,0,6.524-0.817,9.404-2.451
		c2.878-1.632,5.687-4.205,8.424-7.719c0.162-2.613,0.284-5.36,0.367-8.24c0.082-2.879,0.122-6.035,0.122-9.466
		c0-5.554-0.274-10.2-0.827-13.937c-0.551-3.737-1.42-6.687-2.604-8.853c1.838-0.939,3.471-1.633,4.901-2.083
		c1.429-0.449,2.736-0.674,3.92-0.674c1.798,0,3.043,0.573,3.737,1.716c0.694,1.144,1.042,3.614,1.042,7.413
		c0,1.798-0.113,5.75-0.338,11.854c-0.224,6.106-0.335,11.324-0.335,15.653c0,6.045,0.253,10.711,0.766,13.998
		c0.509,3.289,1.357,5.852,2.543,7.689c-2.045,0.979-3.739,1.685-5.085,2.113c-1.349,0.429-2.514,0.644-3.492,0.644
		c-1.758,0-2.963-0.603-3.614-1.808C355.134,89.793,354.806,87.435,354.806,83.921z"/>
	<path fill="#7AC6BF" d="M398.549,90.048c-1.715,0.939-3.349,1.634-4.901,2.082c-1.553,0.451-3.043,0.675-4.471,0.675
		c-2.003,0-3.361-0.542-4.075-1.624c-0.715-1.081-1.071-3.257-1.071-6.524c0-1.878,0.184-6.085,0.551-12.621
		c0.367-6.533,0.551-12.15,0.551-16.847c0-5.104-0.245-9.25-0.734-12.437c-0.489-3.186-1.287-5.902-2.391-8.148
		c1.511-0.898,3.063-1.582,4.656-2.052c1.594-0.469,3.165-0.705,4.719-0.705c1.878,0,3.165,0.459,3.858,1.378
		c0.694,0.919,1.043,2.625,1.043,5.116c0,0.653-0.184,4.227-0.553,10.721c-0.367,6.494-0.551,12.662-0.551,18.502
		c0,5.474,0.276,10.008,0.827,13.601C396.557,84.759,397.405,87.72,398.549,90.048z M398.059,13.161c0,2.328-0.818,4.269-2.452,5.82
		c-1.633,1.552-3.696,2.328-6.187,2.328c-2.167,0-3.88-0.612-5.146-1.837c-1.267-1.226-1.899-2.88-1.899-4.963
		c0-2.287,0.816-4.236,2.449-5.851c1.634-1.613,3.615-2.419,5.942-2.419c2.125,0,3.869,0.653,5.239,1.96
		C397.374,9.507,398.059,11.161,398.059,13.161z"/>
	<path fill="#7AC6BF" d="M414.967,83.002c1.471,0.777,2.881,1.348,4.229,1.716c1.347,0.367,2.654,0.551,3.921,0.551
		c2.941,0,5.309-0.704,7.106-2.113c1.796-1.409,2.694-3.257,2.694-5.544c0-1.797-0.489-3.471-1.469-5.024
		c-0.981-1.552-2.818-3.431-5.516-5.636c-0.449-0.327-1.062-0.816-1.838-1.471c-6.901-5.718-10.352-10.782-10.352-15.194
		c0-1.795,0.347-3.593,1.04-5.391c0.694-1.796,1.716-3.512,3.064-5.146c2.571-3.063,5.585-5.4,9.037-7.015
		c3.449-1.613,7.176-2.419,11.179-2.419c1.962,0,3.452,0.377,4.473,1.133c1.021,0.757,1.532,1.849,1.532,3.278
		c0,0.694-0.184,1.521-0.551,2.48c-0.369,0.96-0.981,2.175-1.84,3.646c-1.102-0.449-2.144-0.786-3.123-1.011
		c-0.98-0.224-1.941-0.337-2.88-0.337c-3.391,0-6.136,0.827-8.239,2.481c-2.104,1.654-3.155,3.79-3.155,6.402
		c0,2.859,2.839,6.719,8.515,11.58c1.431,1.225,2.513,2.185,3.247,2.879c2.409,2.123,4.187,4.218,5.33,6.279
		c1.144,2.063,1.715,4.177,1.715,6.341c0,5.105-2.255,9.506-6.769,13.202s-9.997,5.545-16.449,5.545
		c-2.248,0-3.974-0.45-5.177-1.349c-1.206-0.897-1.808-2.163-1.808-3.798c0-0.775,0.162-1.633,0.489-2.573
		C413.701,85.556,414.232,84.391,414.967,83.002z"/>
</g>
</svg>
