<?xml version="1.0" encoding="utf-8"?>
<!-- Generator: Adobe Illustrator 16.0.0, SVG Export Plug-In . SVG Version: 6.00 Build 0)  -->
<!DOCTYPE svg PUBLIC "-//W3C//DTD SVG 1.1//EN" "http://www.w3.org/Graphics/SVG/1.1/DTD/svg11.dtd">
<svg version="1.1" id="Capa_1" xmlns="http://www.w3.org/2000/svg" xmlns:xlink="http://www.w3.org/1999/xlink" x="0px" y="0px"
	 width="114.01px" height="79.686px" viewBox="0 0 114.01 79.686" enable-background="new 0 0 114.01 79.686" xml:space="preserve">
<g>
	<path fill="#B2DEEE" d="M33.982,23.012c-4.266-4.48-9.173-7.221-15.562-6.973c-6.292,0.245-12.443,3.726-15.755,9.138
		C-3.75,35.663,2.051,48.823,13.274,52.583c7.602,2.547,16.583,0.326,22.131-5.426c7.548-7.825,6.442-21.316-2.799-27.329
		c-8.17-5.316-17.707,3.438-15.682,12.056c0.285,1.218,2.402,5.968,1.008,2.491c1.072,2.673,0.128-1.718,0.066-0.203
		c0.372-2.146,0.432-2.653,0.178-1.52c-0.365,1.09-0.166,0.628,0.598-1.387c-0.791,1.498,2.287-2.196,0.279-0.461
		c2.844-2.456,1.153-1.046,0.26-0.441c-1.479,1.001,3.105-0.952,0.386-0.23c-2.837,0.752,2.481-0.063,0.521-0.014
		c-2.905,0.075,2.378,0.663,0.527,0.19c-2.751-0.702,2.04,1.202,0.419,0.259c-0.98-0.636-0.604-0.329,1.129,0.922
		c-0.814-0.834-0.555-0.442,0.78,1.178c-1.591-2.384,0.166,2.479-0.16-0.127c0.256,0.958,0.246,1.913-0.026,2.868
		c-0.731,1.468-0.789,1.656-0.171,0.563c-0.964,1.2-1.011,1.359-0.14,0.477c-1.162,0.893-1.223,1.016-0.179,0.371
		c1.058-0.576,0.94-0.573-0.352,0.005c1.032-0.253,1.039-0.307,0.021-0.161c2.857-0.304,5.692-0.396,8.551-0.922
		C36.502,34.663,37.641,26.853,33.982,23.012L33.982,23.012z"/>
	<path fill="#B2DEEE" d="M40.524,32.206c0.88-1.82,1.959-3.573,3.148-5.206c0.597-0.819,1.277-1.538,2.017-2.364
		c0.429-0.48,0.889-0.972,1.291-1.475c0.17-0.211,0.398-0.375,0.589-0.567c-0.215,0.162-0.429,0.324-0.644,0.486
		c0.57-0.321,0.543-0.345-0.081-0.069c-0.578,0.151-1.121,0.333-1.74,0.324c0.043,0-1.906-0.48-1.13-0.172
		c0.86,0.34-3.733-3.114-3.68-3.027c-1.76-2.824,0.196,0.402,0.474,1.023c0.715,1.596-0.348-1.597,0.065,0.242
		c0.079,0.348,0.184,0.71,0.285,1.051c0.525,1.758,0.045,0.356-0.019-0.641c0.091,1.43,0.565-2.579-0.111-0.44
		c0.074-0.235,1.118-2.366,1.191-2.194c-0.055-0.127-1.961,2.318-1.466,1.678c-3.064,3.966-3.654,9.272-0.565,13.412
		c5.949,7.971,16.74,3.605,21.078-3.49c3.962-6.479,1.493-13.408-2.905-18.737c-3.324-4.026-8.11-6.768-13.455-5.474
		c-4.194,1.016-7.238,4.32-8.663,8.272c-2.033,5.648-0.21,12.081,2.17,17.368C38.748,33.038,40.14,33.004,40.524,32.206
		L40.524,32.206z"/>
	<path fill="#B2DEEE" d="M55.846,33.651c2.302-1.551,5.646-2.493,7.607-1.729c-1.255-0.489,1.094,1.089-0.242-0.12
		c0.363,0.329,1.875,2.189,0.668,0.552c0.995,1.35,1.941,2.775,2.646,4.293c0.604-4.684,1.209-9.368,1.813-14.053
		c-0.572,0.552-4.153,4.636-1.208,1.409c-1.295,1.419,1.661-0.848,0.433-0.218c-0.564,0.291-1.085,0.701-1.644,1.011
		c-0.657,0.366-2.718,0.966-0.313,0.271c-3.979,1.151-7.839,2.116-11.058,4.867c-6.036,5.158-2.632,15.693,4.624,17.517
		c4.681,1.177,10.059-0.575,14.614-1.947c2.356-0.711,4.747-1.632,6.853-2.903c3.625-2.193,5.449-4.832,7.082-8.722
		c2.296-5.47-2.52-13.21-8.1-14.265c-1.896-0.358,0.875,0.805-0.1,0.049c-0.438-0.34-1.019-0.59-1.504-0.858
		c-1.572-0.865-3.28-1.726-4.997-2.249c-3.874-1.179-8.251-0.837-11.806,1.148c-5.148,2.875-8.288,8.108-8.984,13.874
		C52.015,33.369,54.438,34.599,55.846,33.651L55.846,33.651z"/>
	<path fill="#B2DEEE" d="M37.606,35.217c-2.338,2.818-3.936,6.052-3.689,9.805c0.268,4.08,2.737,7.836,6.305,9.826
		c9.711,5.421,21.134-1.906,21.423-12.752c0.162-6.111-3.484-11.171-8.417-14.422c-2.375-1.565-5.376-2.657-8.254-2.622
		c-6.364,0.078-11.922,6.188-10.218,12.608c0.594,2.234,1.979,4.201,3.991,5.377c0.67,0.283,1.34,0.566,2.011,0.85
		c-0.603-0.258-1.205-0.515-1.808-0.772c2.1,0.904,2.574,1.204,4.929,1.298c-3.734-0.147-2.148-0.339-1.507-0.145
		c0.867,0.117,1.734,0.234,2.602,0.351c-1.923-0.343-2.379-0.401-1.369-0.175c1.368,0.446-1.012-0.438-1.04-0.474
		c0.293,0.147,0.577,0.31,0.853,0.486c0.818,0.562,0.567,0.353-0.753-0.626c0.145,0.212,0.557,0.509,0.727,0.668
		c0.682,0.642,1.065,1.807-0.358-0.546c0.725,1.196-0.468-1.289-0.463-1.271c0.416,1.433-0.123-2.642-0.102-0.979
		c0.029,2.221,0.834-2.331,0.09-0.359c-0.441,1.169,0.649-1.381,0.589-1.351c-0.103,0.051-0.65,0.96-0.666,1.087
		c-0.013,0.104,1.644-2.11,0.876-1.185c-1.139,1.372,1.321-0.912,0.787-0.563c-0.219,0.142-0.445,0.276-0.681,0.389
		c3.62-1.727-0.108,0.011-0.863,0.357c-2.124,0.971,1.932-0.526,0.117-0.04c-1.268,0.341,0.069-0.456,0.935-0.069
		c-0.209-0.094-0.677,0.061-0.903,0.046c-0.624-0.04-1.608-0.239,0.738,0.147c-0.282-0.047-0.577-0.126-0.842-0.234
		c1.873,0.766,1.025,0.466,0.614,0.192c-0.274-0.182,1.245,0.882,0.118,0.037c0.146,0.188,0.292,0.376,0.438,0.563
		c-0.063-0.101-0.127-0.201-0.191-0.302c-0.124-0.208-0.235-0.421-0.336-0.641c0.233,0.545,0.257,0.549,0.067,0.011
		c-0.235-0.849-0.264-1.268-0.281-2.308C43.03,34.917,39.461,32.983,37.606,35.217L37.606,35.217z"/>
	<path fill="#B2DEEE" d="M32.278,48.634c-1.845,0.871-3.704,2.451-4.94,3.184c-2.2,1.305-4.409,2.802-6.122,4.715
		c-3.371,3.768-4.6,8.688-2.076,13.345c2.253,4.157,7.043,5.927,11.53,5.813c7.623-0.194,13.828-5.902,16.992-12.503
		c3.619-7.549,4.126-17.237-5.205-20.686c-2.401-0.887-6.281,0.016-7.888,2.084c-0.874,1.127-1.702,2.174-2.085,3.579
		c-0.487,1.786-0.294,3.606,0.408,5.278c0.089,0.212,1.734,2.896,1.832,2.754c-0.022,0.032-0.66-0.945-0.91-1.51
		c-0.424-0.955-0.317-1.685-0.418-2.66c-0.118-1.152,0.081-0.307-0.19,0.34c0.207-0.492,0.814-1.441,0.201-0.488
		c-0.461,0.719-0.873,1.475-1.335,2.195c-0.592,0.925-0.276,0.207,0.187-0.238c-0.399,0.384-0.754,0.851-1.137,1.254
		c-0.604,0.636-1.241,1.241-1.84,1.881c-0.193,0.207-1.305,1.202-0.188,0.261c1.136-0.957-0.116,0.136-0.399,0.212
		c-1.228,0.33,0.733-0.311,0.966-0.389c-0.917,0.309,0.388-0.075,0.67-0.084c-1.389,0.046,0.457,0.094,0.865,0.207
		c1.75,0.49,2.863,2.021,4.082,3.268c-0.169-0.173-0.268-0.542-0.392-0.752c-0.452-0.77,0.725,2.091,0.476,1.133
		c-0.183-0.697-0.1,1.771,0.106,0.938c0.067-0.273-0.033-0.686-0.024-0.974c0.014-0.421,0.052-0.839,0.068-1.258
		c-0.023,0.583-0.188,0.987-0.021,0.165c0.146-0.724,0.205-1.518,0.457-2.215c-0.156,0.432,0.656-1.11,0.814-1.369
		c0.177-0.287,1.189-1.635,0.582-0.912C40.43,51.524,36.651,46.566,32.278,48.634L32.278,48.634z"/>
	<path fill="#B2DEEE" d="M48.313,54.359c-2.983,3.407-3.829,8.515-3.279,12.895c0.891,7.095,8.154,14.069,15.796,11.596
		c8.842-2.861,13.199-12.477,11.479-21.229c-0.695-3.54-2.353-7.096-4.48-9.999c-1.365-1.862-2.717-3.636-4.546-5.05
		c-3.089-2.386-5.814-2.77-9.68-2.187c-4.048,0.611-6.706,5.222-6.813,8.949c-0.111,3.846,1.796,5.895,3.926,8.768
		c-1.291-1.741,0.152,0.422,0.382,0.83c0.381,0.678,0.912,2.459,0.435,0.813c0.245,0.848,0.488,1.676,0.654,2.542
		c-0.473-2.472-0.158-0.029-0.104,0.571c0.277-1.392,0.283-1.516,0.02-0.369c0.136-0.318,0.272-0.637,0.408-0.955
		c-0.641,1.01-0.566,0.967,0.222-0.129c1.139-0.751,1.406-0.945,0.801-0.582c-0.808,0.459-1.55,1.016-2.224,1.672
		c0.513-0.568,1.122-0.982,1.827-1.24c0.642-0.366,1.34-0.545,2.096-0.536c1.341,0.241,1.678,0.278,1.008,0.114
		c-0.554-0.16-0.354-0.051,0.598,0.326c-0.689-0.308-1.385-0.6-2.087-0.875c-0.474-0.186-0.325-0.132,0.446,0.162
		c-0.264-0.133-0.521-0.279-0.77-0.438c-1.273-1.035-2.771-2.497-3.139-4.862C51.085,53.839,49.14,53.417,48.313,54.359
		L48.313,54.359z"/>
	<path fill="#B2DEEE" d="M61.867,43.718c0.365,1.23,0.637,3.348,1.088,4.934c0.977,3.436,3.037,7.342,5.339,10.065
		c6.556,7.761,18.046,11.907,26.2,3.692c18.46-18.596-25.521-44.734-34.194-20.646c-2.301,6.39,3.818,14.748,10.724,14.078
		c1.697-0.165,3.208-0.355,4.78-1.02c2.655-1.119,1.51-0.523-0.034-0.092c1.91-0.533-2.476,0.213-1.229,0.109
		c1.953-0.161-0.638,0.104-1.052-0.263c0.24,0.214,1.14,0.28,1.447,0.343c2.224,0.454-0.719-0.012-0.659-0.383
		c-0.002,0.012,1.276,0.766,1.347,0.793c1.135,0.423-1.839-1.781-0.6-0.463c0.821,0.873,2.573,3.277,0.435,0.146
		c0.32,0.469,0.944,1.916,0.086-0.144c-0.403-1.073-0.524-1.336-0.361-0.79c0.265,0.975,0.174,0.25-0.272-2.175
		c0.016-4.149,2.667-7.089,6.295-8.503c-1.229,0.48-5.095,2.203-2.303,0.96c0.549-0.245,1.522-1.118,2.62-0.542
		c-0.26-0.137-0.761,0.164-1.042,0.033c-1.73-0.812,2.671,0.697,0.606,0.124c-1.001-0.278-2.021-0.522-3.026-0.791
		c-1.948-0.521-3.98-0.819-5.956-1.255c-2.676-0.59-7.174-1.353-9.665,0.381C61.989,42.624,61.702,43.161,61.867,43.718
		L61.867,43.718z"/>
	<path fill="#B2DEEE" d="M65.95,28.017c2.108-1.178,5.234-0.511,7.649-0.26c-0.617-0.091-0.524-0.07,0.278,0.06
		c0.861,0.156,1.729,0.257,2.603,0.304c0.479,0.022,0.96,0.057,1.438,0.104c-0.801-0.126-0.771-0.117,0.094,0.027
		c0.859,0.171,1.687,0.437,2.538,0.637c0.857,0.309,0.786,0.265-0.214-0.133c0.622,0.375,0.661,0.354,0.116-0.063
		c-0.442-0.329-0.797-0.739-1.065-1.232c0.445,0.793,0.351,0.528-0.286-0.792c0.246,1.169,0.289,1.25,0.13,0.245
		c0.028,0.546,0.021,1.092-0.021,1.639c0.22-1.376,0.196-1.52-0.072-0.43c0.64-1.377,0.686-1.567,0.14-0.567
		c1.046-1.252,1.172-1.445,0.378-0.579c-0.733,0.647-0.716,0.653,0.053,0.016c0.787-0.624,0.787-0.63,0-0.019
		c-0.405,0.31-0.828,0.597-1.268,0.859c-0.453,0.271-0.918,0.517-1.396,0.739c1.688-0.683,1.904-0.807,0.65-0.372
		c-1.287,0.379-2.531,0.876-3.731,1.491c1.679-0.663,1.887-0.763,0.625-0.301c-1.766,0.432-3.527,1.042-5.044,2.057
		c-3.395,2.267-5.638,5.627-5.638,9.828c0,3.743,2.105,8.15,5.638,9.828c9.68,4.6,22.728-0.06,27.599-9.73
		c4.289-8.517,2.532-19.744-5.856-25.162c-9.301-6.006-25.627-2.424-30.04,8.188C60.109,27.131,63.74,29.251,65.95,28.017
		L65.95,28.017z"/>
	<path fill="#B2DEEE" d="M61.512,27.472c1.041-1.185,3.32-1.479,4.84-1.744c2.028-0.354,4.917-0.107,7.252,0.02
		c2.091,0.113,3.943,0.49,6.636,1.201c1.373,0.362-0.771-0.413,0.327,0.11c0.901,0.428,1.465,0.957,2.501,1.257
		c0.683,0.198,1.466,0.235,2.171,0.309c1.208,0.125-0.678-0.195-0.994-0.338c2.104,0.958,4.122,0.483,5.478-1.438
		c2.755-3.898,0.036-8.563-3.759-10.372c-3.871-1.845-8.127-2.275-12.359-1.842c-5.909,0.603-16.917,4.083-15.193,12.018
		C58.697,27.976,60.609,28.5,61.512,27.472L61.512,27.472z"/>
	<path fill="#B2DEEE" d="M69.528,30.329c0.795-0.498,0.992-1.183,1.516-1.883c-0.6,0.461-1.199,0.922-1.799,1.383
		c2.08-0.391,2.802-2.563,3.297-4.319c0.184-0.648,0.391-1.317,0.511-1.979c0.091-0.503,0.181-0.438-0.05,0.014
		c0.188-0.366,0.414-0.706,0.623-1.059c-2.478,0.649-4.955,1.298-7.433,1.948c0.261,0.149,0.523,0.3,0.785,0.45
		c4.241,2.43,9.656,0.587,11.547-3.892c1.93-4.574-0.606-9.511-5.274-10.985c-5.23-1.651-11.1-0.966-15.968,1.534
		c-7.212,3.703-10.471,14.226-5.333,20.876c2.063,2.67,4.972,4.367,8.47,4.313c4.226-0.065,8.568-3.149,9.537-7.401
		c0.465-2.043,0.457-3.842,0.056-5.912c-0.336-1.728,0.021,2.715,0.153,0.999c-0.171,2.227-0.558,3.262-1.726,4.504
		c1.084-1.153-0.84,0.596-1.038,0.752c4.324-3.388,2.039-1.036,1.007-0.785c0.674-0.164,1.71-0.955,2.339-1.315
		c0.659-0.296,0.554-0.257-0.317,0.118c-1.504,0.632-0.979,0.41,1.575-0.666c0.398-0.223,0.753-0.448,1.136-0.708
		c0.688-0.467,1.396-0.924,2.053-1.431c-3.985-1.622-7.971-3.243-11.957-4.864c0.153,0.389,0.306,0.778,0.459,1.168
		c0-0.963,0-1.926,0-2.888c-1.277,3.323-0.014,11.742,4.749,11.637c-0.71-0.294-1.419-0.587-2.129-0.881
		c0.462,0.441,0.647,0.948,1.253,1.274C68.173,30.653,68.931,30.705,69.528,30.329L69.528,30.329z"/>
	<path fill="#B2DEEE" d="M35.41,26.681c0.323-1.191,0.721-2.26,1.124-3.411c0.156-0.45,0.213-0.908,0.324-1.368
		c0.094-0.389,0.711-1.719,0.054-1.014c-0.752,0.438-1.504,0.876-2.257,1.315c-1.296,0.19-0.891,0.138,1.214-0.153
		c1.2-0.337,2.242-0.944,3.125-1.822c1.029-0.722,0.118-0.101,1.022-0.645c-1.291,0.595-0.884,0.433,1.225-0.485
		c-0.913,0.367-0.946,0.405-0.101,0.113c0.407-0.118,0.819-0.211,1.236-0.282c-1.031,0.126-1.239,0.176-0.623,0.152
		c0.303-0.011,0.604-0.002,0.906,0.025c-1.214-0.19-1.372-0.179-0.475,0.034c-1.101-0.524-1.253-0.571-0.455-0.142
		c-0.862-0.732-1.069-0.876-0.62-0.434c0.282-0.177,3.533,3.826,1.521,1.367c0.768,0.937,1.729,1.75,2.807,2.296
		c3.634,1.837,7.432,0.772,9.734-2.553c2.674-3.861,1.232-9.781-1.821-12.948c-2.493-2.586-6.286-3.908-9.808-4.056
		c-7.465-0.312-13.569,3.924-16.387,10.667c-0.957,2.291,0.24,5.228,1.821,6.891c0.645,0.677,1.183,1.912,1.819,2.805
		c1.03,1.442,2.453,2.343,3.476,3.798C34.569,27.252,35.263,27.23,35.41,26.681L35.41,26.681z"/>
	<path fill="#B2DEEE" d="M60.001,20.37c0.488-0.875,1.059-1.642,1.748-2.369c-0.594,0.245-1.186,0.491-1.779,0.737
		c0.949,0.077,1.837,0.08,2.771-0.226c0.754-0.159,0.534-0.148-0.661,0.034c0.646-0.087,1.294-0.174,1.94-0.261
		c0.713-0.17,2.788-0.627,3.188-1.483c-0.054,0.114-1.541,0.796,0.085,0.023c-1.309,0.117-1.486,0.172-0.534,0.166
		c-0.682,0.072-1.301-0.084-1.859-0.466c0.79,0.465,0.872,0.486,0.248,0.063c-0.484-0.298-0.874-0.698-1.169-1.2
		c-0.506-0.788-0.75-1.651-0.731-2.591c-0.031,1.056,0.039,0.781,0.214-0.825c-0.294,0.359-0.28,1.438-0.374,1.866
		c-0.479,2.195-1.396,4.227-1.445,6.514c-0.084,3.859,1.61,7.925,5.015,9.946c6.646,3.946,14.156-1.69,15.501-8.467
		c0.971-4.891,1.27-9.873-1.242-14.393c-2.557-4.6-7.684-7.4-12.924-7.437c-4.836-0.033-9.383,2.246-11.894,6.444
		c-2.243,3.751-1.575,9.761,2.603,11.95c-0.386-0.502-0.771-1.002-1.156-1.504c0.498,1.243,1.05,2.396,1.843,3.479
		C59.537,20.575,59.86,20.622,60.001,20.37L60.001,20.37z"/>
	<path fill="#B2DEEE" d="M72.769,24.681c1.178,0.023,2.188,0.283,3.669,0.882c-0.554-0.224-0.969-0.427-0.205-0.022
		c0.861,0.455,1.818,0.761,2.731,1.098c1.176,0.433,0.168,0.181-0.359-0.164c0.458,0.299,1,0.548,1.489,0.792
		c1.055,0.524,2.166,0.99,3.278,1.374c0.24,0.065,0.477,0.14,0.711,0.224c0.583,0.208,0.475,0.149-0.324-0.175
		c-0.257-0.598-0.808-0.298,0.268,0.192c0.748,0.341,1.039,1.157,0.254,0.035c-0.877-0.559-1.462-1.369-1.756-2.432
		c-0.965-2.081-1.309-2.625-1.031-1.632c0.377,1.235-0.081-3.317-0.24-1.738c-0.043,0.425-0.029,1.133,0.064,1.547
		c-0.017,0.822,0.027,0.52,0.133-0.903c0.01-1.38,0.426-2.653,1.246-3.817c1.951-1.951,3.902-3.902,5.854-5.853
		c-3.499,1.789-5.684,4.892-7.435,8.233c-0.358,0.685-0.709,1.377-1.067,2.067c-0.242,0.474-0.51,0.933-0.805,1.376
		c1.949-2.392,2.469-3.062,1.557-2.011c-0.562,0.457-2.935,2.584-0.281,0.577c2.654-2.007,0.048-0.178-0.58,0.221
		c-2.55,1.621-4.515,3.429-6.685,5.409C64,38.411,69.128,53.87,80.433,57.149c6.046,1.755,11.926,1.168,17.477-1.854
		c3.194-1.739,6.286-4.151,8.656-6.923c4.116-4.813,6.961-9.913,7.397-16.402c0.475-7.06-2.684-14.293-8.945-17.882
		c1.951,1.951,3.901,3.902,5.853,5.853c-1.304-2.267-3.055-4.458-4.967-6.251c-1.617-1.517-6.019-4.77-8.492-4.755
		c-0.291-0.085-0.587-0.149-0.888-0.191c2.567,1.271,2.155,1.146-1.235-0.37c-0.652-0.238-1.294-0.464-1.974-0.618
		c-2.145-0.488-4.43-0.813-6.64-0.769C78.89,7.14,71.717,12.773,69.251,20.063C68.472,22.369,70.521,24.636,72.769,24.681
		L72.769,24.681z"/>
	<path fill="#B2DEEE" d="M75.509,50.32c-6.892-1.262-8.489,8.792-7.336,13.534c2.136,8.777,9.071,16.018,18.59,15.827
		c11.121-0.222,20.537-8.506,20.961-19.802c0.382-10.189-6.463-18.245-15.713-21.517c-5.584-1.976-12.62,2.235-13.91,7.897
		c-1.484,6.521,1.996,11.569,7.898,13.91c-1.561-0.702-1.811-0.774-0.749-0.218c1.009,0.672,0.793,0.485-0.649-0.558
		c0.328,0.298,0.636,0.616,0.924,0.954c-1.087-1.477-1.311-1.717-0.673-0.72c1.11,1.787-0.7-2.673-0.123-0.095
		c0.204,0.908,0.147,0.398-0.169-1.523c0.03,0.415,0.034,0.83,0.011,1.246c0.342-2.043,0.382-2.455,0.122-1.236
		c-0.371,1.156-0.203,0.819,0.504-1.009c-0.196,0.388-0.417,0.76-0.666,1.116c1.16-1.49,1.339-1.76,0.537-0.809
		c-0.155,0.179-0.311,0.356-0.466,0.533c-0.868,0.815-0.658,0.705,0.63-0.328c-0.489,0.342-0.997,0.654-1.522,0.938
		c1.247-0.433,1.304-0.458,0.172-0.077c1.539-0.094,1.707-0.119,0.505-0.079c1.499,0.259,1.66,0.227,0.482-0.096
		c0.964,0.442,1.102,0.486,0.414,0.131c-0.438-0.224-0.856-0.478-1.258-0.762c1.298,0.104,2.055,1.742,0.531,0.263
		c-0.531-0.515-1.005-1.083-1.528-1.604c-0.808-0.805-1.639-1.503-2.559-2.189c-0.304-0.21-0.604-0.425-0.899-0.646
		c1.106,0.845,0.824,0.625-0.847-0.661c-0.419-0.27-1.128-0.797-1.615-0.903c-0.476-0.321-0.419-0.271,0.17,0.149
		c0.581,0.697,0.786,1.541,0.618,2.533C78.407,52.872,77.286,50.646,75.509,50.32L75.509,50.32z"/>
	<path fill="#FFFFFF" d="M47.996,28.302c-1.764,0.752-3.649,1.187-5.468,1.783c-2.146,0.704-1.563,3.47,0.504,3.729
		c3.983,0.498,8.182-0.584,11.78-2.249c1.765-0.816,0.819-3.545-0.958-3.537c-4.085,0.02-8.01,0.867-11.982,1.742
		c-1.804,0.398-1.816,3.27,0,3.661c5.477,1.179,11.74,0.015,16.179-3.458c1.47-1.149-0.125-3.852-1.847-3.172
		c-4.758,1.879-9.664,3.517-14.838,3.456c0,1.265,0,2.53,0,3.795c4.836,0.036,9.358,0.004,13.501-2.811
		c1.498-1.017,1.022-3.549-0.957-3.537c-4.143,0.026-8.002,1.43-12.08,1.919c-2.363,0.284-2.51,3.736,0,3.796
		c3.999,0.096,8.242-0.2,11.471-2.786c1.174-0.94,0.401-2.792-0.838-3.172c-2.233-0.685-4.931-0.166-7.173,0.222
		c-2.1,0.363-4.515,0.792-5.883,2.564c-1.492,1.933,1.804,3.824,3.277,1.917c0.414-0.536,3.509-0.817,4.308-0.932
		c1.361-0.195,3.114-0.524,4.462-0.111c-0.279-1.056-0.558-2.114-0.837-3.172c-2.31,1.85-5.989,1.741-8.787,1.674
		c0,1.265,0,2.531,0,3.796c4.053-0.488,7.98-1.894,12.08-1.919c-0.319-1.179-0.64-2.358-0.959-3.537
		c-3.572,2.428-7.443,2.323-11.585,2.293c-2.443-0.018-2.444,3.767,0,3.795c5.512,0.066,10.77-1.586,15.848-3.591
		c-0.616-1.058-1.231-2.115-1.847-3.172c-3.282,2.568-8.487,3.343-12.486,2.481c0,1.221,0,2.44,0,3.661
		c3.642-0.803,7.229-1.588,10.974-1.607c-0.319-1.179-0.639-2.358-0.958-3.537c-3.021,1.397-6.547,2.145-9.864,1.73
		c0.168,1.243,0.336,2.485,0.505,3.728c2.147-0.705,4.292-1.278,6.375-2.166C52.152,30.626,50.22,27.355,47.996,28.302
		L47.996,28.302z"/>
	<path fill="#FFFFFF" d="M85.459,25.264c-2.687,0.911-5.186,2.266-7.977,2.854c-2.066,0.437-1.642,3.907,0.504,3.729
		c4.048-0.337,8-1.541,11.615-3.383c1.988-1.013,0.562-3.917-1.462-3.469c-3.991,0.884-8.113,0.798-12.089,1.781
		c-1.712,0.423-1.903,3.376,0,3.661c4.724,0.705,10.253,0.97,14.57-1.411c1.562-0.86,0.961-3.743-0.958-3.537
		c-4.912,0.529-10.581,4.072-15.458,2.29c-0.169,1.243-0.337,2.485-0.505,3.728c5.235,0.261,10.244-1.6,15.138-3.221
		c1.938-0.642,1.735-3.848-0.505-3.728c-3.893,0.208-7.789,0.252-11.422,1.814c0.638,1.092,1.277,2.185,1.916,3.277
		c2.169-0.967,4.407-1.671,6.691-2.307c2.351-0.654,1.353-4.317-1.009-3.661c-2.606,0.725-5.127,1.588-7.599,2.69
		c-2.239,0.997-0.297,4.228,1.916,3.277c2.934-1.261,6.376-1.129,9.506-1.296c-0.168-1.243-0.336-2.486-0.504-3.729
		c-4.566,1.512-9.243,3.329-14.129,3.085c-2.259-0.112-2.409,3.032-0.505,3.728c5.568,2.035,10.997-1.564,16.468-2.154
		c-0.319-1.179-0.639-2.357-0.958-3.536c-3.323,1.833-8.005,1.57-11.646,1.027c0,1.22,0,2.44,0,3.661
		c3.969-0.981,8.097-0.898,12.089-1.781c-0.487-1.157-0.976-2.313-1.463-3.469c-2.976,1.516-6.361,2.587-9.699,2.865
		c0.169,1.242,0.337,2.485,0.505,3.728c2.797-0.589,5.285-1.942,7.977-2.854C88.77,28.145,87.781,24.477,85.459,25.264
		L85.459,25.264z"/>
	<path fill="#8BB6E2" d="M44.267,34.696c0.095-0.125,0.183-0.253,0.269-0.384c0.12-0.184,0.394-0.418-0.031-0.001
		c0.173-0.169-0.247,0.172-0.24,0.168c-0.435,0.257-1.124,0.251-1.564,0.015c-0.136-0.073-0.338-0.304-0.104-0.067
		c0.088,0.089,0.167,0.186,0.248,0.283c0.447-1.08,0.895-2.16,1.342-3.24c-0.088,0.002-0.176,0.006-0.263,0.004
		c-0.05-0.002-0.452-0.036-0.087,0.003c0.44,0.047-0.424-0.165,0.034,0.004c0.173,0.079,0.203,0.088,0.09,0.025
		c0.092,0.071,0.184,0.142,0.275,0.214c-0.165-0.165,0.186,0.253,0.179,0.242c0.181,0.311,0.191,0.553,0.158,0.828
		c-0.029,0.231-0.085,0.388-0.214,0.554c-0.222,0.285-0.06,0.081,0.002,0.028c-0.027,0.023-0.402,0.259-0.184,0.145
		c0.052-0.028,0.107-0.061,0.158-0.092c0.216-0.134-0.124,0.082-0.177,0.07c0.115,0.023,0.431-0.118,0.557-0.14
		c0.98-0.172,1.62-1.424,1.325-2.334c-0.341-1.055-1.284-1.509-2.334-1.326c-1.436,0.252-2.901,1.351-2.906,2.93
		c-0.007,1.833,1.781,2.692,3.386,2.643c0.765-0.024,1.435-0.458,1.733-1.167c0.315-0.747,0.107-1.467-0.392-2.073
		c-0.766-0.929-1.984-1.481-3.128-0.85c-0.665,0.368-0.969,1.028-1.409,1.604c-0.278,0.364-0.307,1.045-0.191,1.463
		c0.121,0.44,0.462,0.917,0.872,1.134C42.674,35.907,43.62,35.541,44.267,34.696L44.267,34.696z"/>
	<path fill="#8BB6E2" d="M78.372,31.523c-0.014-0.18-0.023-0.359-0.021-0.539c0-0.076,0.003-0.151,0.009-0.228
		c-0.044,0.253-0.046,0.272-0.008,0.055c-0.29,0.378-0.581,0.756-0.872,1.134c-0.475,0.208,0.039,0.002,0.15-0.027
		c0.395-0.099,0.058,0.057-0.082-0.001c0.063-0.004,0.127-0.004,0.19-0.002c-0.356-0.06-0.44-0.07-0.25-0.031
		c0.185,0.057,0.105,0.02-0.236-0.109c0.11,0.068,0.086,0.045-0.072-0.067c-0.149-0.125-0.178-0.144-0.087-0.054
		c-0.21-0.3-0.271-0.368-0.179-0.205c-0.129-0.344-0.17-0.422-0.12-0.237c-0.036-0.356-0.052-0.455-0.047-0.296
		c0.019,0.411,0.134-0.414,0.016-0.072c-0.04,0.117-0.238,0.596-0.014,0.107c0.993-0.129,1.986-0.256,2.98-0.385
		c-0.103-0.089-0.201-0.213-0.311-0.292c0.212,0.297,0.271,0.371,0.181,0.222c0.139,0.374,0.184,0.473,0.135,0.296
		c-0.011-0.228-0.073-0.471-0.125-0.691c-0.609,0.801-1.22,1.602-1.829,2.402c0.47-0.054,0.95,0.072,1.411-0.098
		c0.93-0.342,1.66-1.303,1.326-2.335c-0.295-0.912-1.337-1.691-2.335-1.326c-0.214,0.079,0.501,0.007,0.271-0.036
		c-0.075-0.014-0.178-0.001-0.252-0.003c-0.141-0.004-0.281-0.014-0.421,0.002c-0.62,0.072-1.099,0.24-1.49,0.748
		c-0.378,0.489-0.479,1.053-0.34,1.655c0.061,0.262,0.074,0.541,0.157,0.797c0.175,0.54,0.516,0.974,0.938,1.343
		c0.468,0.408,0.974,0.605,1.595,0.522c0.539-0.073,1.146-0.38,1.387-0.906c0.385-0.842,0.664-1.73,0.428-2.664
		c-0.235-0.927-0.932-1.657-1.844-1.942c-0.731-0.229-1.566-0.167-2.282,0.089c-0.829,0.297-1.439,0.69-1.664,1.602
		c-0.124,0.503-0.127,1.056-0.089,1.571c0.072,0.988,0.821,1.946,1.898,1.898C77.44,33.378,78.45,32.583,78.372,31.523
		L78.372,31.523z"/>
	<path fill="#F7C2D2" d="M48.638,43.544c0.004-0.068,0.007-0.136,0.01-0.203c-0.185,0.447-0.37,0.895-0.556,1.342
		c0.243-0.229,0.834-0.92,0.848-1.688c0.011-0.616-0.357-1.367-0.939-1.638c-0.094-0.043-0.187-0.086-0.279-0.13
		c-0.774-0.361-1.665-0.338-2.3,0.297c-1.955,1.955-1.365,4.93,1.044,6.228c2.187,1.178,5.687,0.022,6.13-2.611
		c0.861-5.113-9.318-5.379-9.33,0.106c-0.011,5.379,9.422,5.265,9.231,0.041c-0.179-4.893-7.898-6.549-10.553-2.791
		c-1.452,2.057-0.514,4.508,1.566,5.681c1.941,1.093,4.385,0.995,6.444,0.308c1.899-0.635,3.96-1.992,4.021-4.217
		c0.064-2.271-1.78-4.004-3.85-4.54c-3.685-0.954-11.325,0.938-10.252,6.101c0.98,4.72,8.319,5.412,11.447,2.66
		c2.015-1.771,2.022-4.587,0.177-6.494c-2.007-2.073-5.099-2.567-7.8-1.765c-2.309,0.686-4.083,2.589-3.3,5.115
		c0.707,2.277,2.983,3.972,5.067,4.898c2.212,0.984,4.146-2.285,1.916-3.277c-1.185-0.527-2.78-1.354-3.323-2.631
		c-0.185-0.436-0.013-0.232-0.125-0.066c0.112-0.166,0.387-0.256,0.565-0.311c1.016-0.313,2.093-0.467,3.108-0.076
		c1.668,0.643,1.98,1.854,0.022,2.369c-0.781,0.205-3.855,0.055-4.03-1.117c-0.172-1.158,2.623-1.713,3.37-1.811
		c0.672-0.09,3.514,0,3.159,0.835c-0.401,0.946-2.979,1.165-3.832,1.026c-0.414-0.068-0.87-0.213-1.198-0.483
		c-0.269-0.221-0.166,0.079-0.072-0.021c0.521-0.558,1.487-0.601,2.169-0.388c0.492,0.152,1.482,0.828,1.524,1.133
		c-0.06-0.426-0.185,0.016-0.753,0.071c-0.212,0.021-0.708,0.071-0.853-0.161c-0.217-0.348,0.926-0.318,1.295-0.346
		c0.117-0.009,0.445,0.221,0.524,0.193c0.403,0.287,0.436-0.059,0.097-1.037c-0.15,0.1-0.3,0.197-0.449,0.297
		c-0.262-0.163-0.658-0.053-0.477-0.234c-0.767,0.098-1.533,0.197-2.3,0.296c0.093,0.044,0.186,0.087,0.279,0.13
		c-0.313-0.545-0.627-1.092-0.94-1.639c0,0.035-0.001,0.068-0.002,0.104c0.313-0.547,0.627-1.094,0.94-1.64
		c-0.781,0.569-1.19,1.069-1.24,2.085C44.722,45.985,48.519,45.979,48.638,43.544L48.638,43.544z"/>
	<path fill="#F7C2D2" d="M89.571,40.764c-2.121,0.323-5.415,1.504-4.356,4.329c0.673,1.797,3.016,2.703,4.808,2.297
		c2.158-0.489,3.318-2.934,2.313-4.916c-1.054-2.078-4.005-2.839-6.134-2.42c-2.411,0.475-4.363,2.897-3.188,5.375
		c1.097,2.309,4.256,2.93,6.547,2.483c1.889-0.367,4.011-1.551,3.67-3.789c-0.289-1.902-2.203-3.143-3.803-3.911
		c-3.013-1.445-8.92-2.567-9.874,2.013c-0.818,3.926,4.283,5.523,7.227,5.799c3.132,0.296,7.659-0.969,6.684-5.043
		c-0.999-4.173-5.639-6.165-9.313-4.089c-2.931,1.655-5.417,6.033-2.413,8.82c3.015,2.798,10.765,2.279,12.034-2.168
		c1.175-4.12-3.112-8.115-7.083-7.667c-3.689,0.415-7.877,4.944-4.848,8.435c2.07,2.385,6.304,3.023,9.112,1.746
		c3.954-1.799,3.48-6.917,0.859-9.743c-5.822-6.277-15.628,6.141-7.946,9.868c2.225,1.078,5.652,1.156,7.792-0.119
		c2.516-1.5,3.035-4.677,1.316-6.982c-2.8-3.758-10.14-3.886-13.403-0.69c-1.654,1.62-2.239,4.391-0.856,6.36
		c1.377,1.961,4.099,2.664,6.376,2.68c2.32,0.016,5.055-0.75,6.133-3.004c1.176-2.459-0.349-5.154-2.333-6.657
		c-1.969-1.49-4.59-1.942-6.483-0.098c-1.752,1.708,0.933,4.391,2.685,2.684c0.689-0.671,4.698,2.369,1.323,3.158
		c-1.146,0.269-5.711,0.111-4.477-2.064c1.039-1.832,4.774-1.688,6.441-1.111c0.922,0.32,2.41,1.205,1.578,2.295
		c-0.66,0.865-3.223,0.615-4.133,0.254c-2.381-0.943,0.198-4.446,2.053-4.5c1.344-0.041,2.505,2.174,2.228,3.372
		c-0.232,1.002-1.379,1.123-2.289,1.123c-0.946,0-2.631-0.312-3.126-1.049c-0.189-0.281-0.198-0.181,0.043-0.586
		c0.457-0.768,1.43-1.504,2.33-1.62c1.245-0.16,3.382,1.194,3.098,2.677c-0.312,1.619-4.389,1.539-5.483,0.852
		c-1.834-1.152,2.065-4.192,3.872-3.01c0.486,0.319,1.156,1.146,1.247,1.717c0.044,0.275-0.049,0.209,0.071,0.012
		c0.004-0.006-0.312,0.193-0.483,0.229c-1.484,0.307-3.012,0.205-4.453-0.297c-0.542-0.188-1.332-0.477-1.641-0.892
		c0.012,0.015-0.228-0.052,0.249-0.144c2.068-0.402,3.888,0.743,5.607,1.684c0.581,0.317,0.144,0.551,0.339,0.117
		c0.454-1.007-0.023-0.374-0.666-0.373c-0.585,0-3.498-0.416-1.653-0.457c0.49-0.012,1.197,0.393,1.599,0.35
		c0.15-0.016,0.302-0.438,0.418-0.391c0.051,0.021-0.482-0.139-0.51-0.096c-0.222,0.332-0.075,1.17,0.037,1.222
		c0.257,0.116,1.606-0.36,1.869-0.399C92.987,44.058,91.965,40.4,89.571,40.764L89.571,40.764z"/>
	<path fill="#5CC5EC" d="M62.834,47.934c-3.334,4.147,0.22,11.272,5.492,11.485c5.381,0.217,7.55-7.734,4.074-11.169
		c-0.87-0.859-2.212,0.481-1.342,1.342c2.294,2.269,0.982,8.148-2.732,7.929c-3.478-0.205-6.479-5.348-4.15-8.245
		C64.935,48.332,63.6,46.981,62.834,47.934L62.834,47.934z"/>
</g>
</svg>
