<?xml version="1.0" encoding="utf-8"?>
<!-- Generator: Adobe Illustrator 16.0.0, SVG Export Plug-In . SVG Version: 6.00 Build 0)  -->
<!DOCTYPE svg PUBLIC "-//W3C//DTD SVG 1.1//EN" "http://www.w3.org/Graphics/SVG/1.1/DTD/svg11.dtd">
<svg version="1.1" id="Capa_1" xmlns="http://www.w3.org/2000/svg" xmlns:xlink="http://www.w3.org/1999/xlink" x="0px" y="0px"
	 width="114px" height="80px" viewBox="63 12 114 80" enable-background="new 63 12 114 80" xml:space="preserve">
<g id="Layer_2">
</g>
<g id="Layer_3">
</g>
<g id="Layer_4">
</g>
<g id="Layer_5">
</g>
<g id="Layer_6">
</g>
<g id="Layer_7">
</g>
<g id="Layer_8">
</g>
<g id="Layer_9">
</g>
<g id="Layer_10">
</g>
<g id="Layer_11">
</g>
<g id="Layer_12">
</g>
<g id="Layer_13">
</g>
<g id="Layer_14">
</g>
<g id="Layer_15">
</g>
<g id="Layer_16">
</g>
<g id="Layer_17">
</g>
<g id="Layer_18">
</g>
<g id="Layer_19">
</g>
<g id="Layer_20">
</g>
<g id="Layer_21">
	<g>
		<path fill="#FFC10A" d="M146.45,52c0,14.548-11.902,26.45-26.45,26.45c-14.547,0-26.45-11.902-26.45-26.45
			c0-14.547,11.902-26.45,26.45-26.45C134.548,25.55,146.45,37.453,146.45,52z"/>
	</g>
	<g>
		<path fill="#F44236" d="M120,12.325c-1.587,0-2.645,1.058-2.645,2.645v5.29c0,1.587,1.058,2.645,2.645,2.645
			s2.645-1.058,2.645-2.645v-5.29C122.645,13.383,121.587,12.325,120,12.325z"/>
		<path fill="#F44236" d="M120,81.095c-1.587,0-2.645,1.058-2.645,2.646v5.29c0,1.587,1.058,2.645,2.645,2.645
			s2.645-1.058,2.645-2.645v-5.29C122.645,82.152,121.587,81.095,120,81.095z"/>
		<path fill="#F44236" d="M157.03,49.355h-5.29c-1.588,0-2.646,1.058-2.646,2.645s1.058,2.645,2.646,2.645h5.29
			c1.587,0,2.645-1.058,2.645-2.645S158.617,49.355,157.03,49.355z"/>
		<path fill="#F44236" d="M88.26,49.355h-5.29c-1.587,0-2.645,1.058-2.645,2.645s1.058,2.645,2.645,2.645h5.29
			c1.587,0,2.645-1.058,2.645-2.645S89.847,49.355,88.26,49.355z"/>
		<path fill="#F44236" d="M144.334,23.963l-3.703,3.703c-1.059,1.058-1.059,2.645,0,3.703c0.529,0.529,1.322,0.793,1.852,0.793
			s1.322-0.265,1.852-0.793l3.703-3.703c1.058-1.058,1.058-2.645,0-3.703C146.979,22.905,145.392,22.905,144.334,23.963z"/>
		<path fill="#F44236" d="M95.666,72.631l-3.703,3.703c-1.058,1.058-1.058,2.646,0,3.703c0.529,0.528,1.323,0.793,1.852,0.793
			c0.529,0,1.322-0.265,1.851-0.793l3.703-3.703c1.058-1.059,1.058-2.645,0-3.703S96.724,71.572,95.666,72.631z"/>
		<path fill="#F44236" d="M95.666,23.963c-1.058-1.058-2.645-1.058-3.703,0c-1.058,1.058-1.058,2.645,0,3.703l3.703,3.703
			c0.529,0.529,1.323,0.793,1.852,0.793s1.323-0.265,1.852-0.793c1.058-1.058,1.058-2.645,0-3.703L95.666,23.963z"/>
		<path fill="#F44236" d="M144.334,72.631c-1.059-1.059-2.645-1.059-3.703,0s-1.059,2.645,0,3.703l3.703,3.703
			c0.528,0.528,1.322,0.793,1.852,0.793s1.322-0.265,1.852-0.793c1.058-1.058,1.058-2.646,0-3.703L144.334,72.631z"/>
	</g>
</g>
<g id="Layer_22">
</g>
<g id="Layer_23">
</g>
<g id="Layer_24">
</g>
<g id="Layer_25">
</g>
<g id="Wearher">
</g>
</svg>
