<?xml version="1.0" encoding="utf-8"?>
<!-- Generator: Adobe Illustrator 16.0.0, SVG Export Plug-In . SVG Version: 6.00 Build 0)  -->
<!DOCTYPE svg PUBLIC "-//W3C//DTD SVG 1.1//EN" "http://www.w3.org/Graphics/SVG/1.1/DTD/svg11.dtd">
<svg version="1.1" id="Capa_1" xmlns="http://www.w3.org/2000/svg" xmlns:xlink="http://www.w3.org/1999/xlink" x="0px" y="0px"
	 width="673.778px" height="95.252px" viewBox="-106.678 4.008 673.778 95.252"
	 enable-background="new -106.678 4.008 673.778 95.252" xml:space="preserve">
<g>
	<path fill="#7AC6BF" d="M-86.03,80.818c-2.707,0-5.427-0.706-8.162-2.118c-5.383-2.735-8.074-7.44-8.074-14.117V18.39
		c0-0.559,0.279-0.838,0.839-0.838c0.588,0,0.882,0.28,0.882,0.838v14.559h14.516c0.588,0,0.882,0.28,0.882,0.838
		c0,0.559-0.294,0.838-0.882,0.838h-14.516v29.957c0,6,2.354,10.206,7.06,12.617c2.411,1.266,4.896,1.897,7.456,1.897
		c0.588,0,0.882,0.294,0.882,0.883C-85.148,80.539-85.442,80.818-86.03,80.818z"/>
	<path fill="#7AC6BF" d="M-75.089,72.745c-1.412-2.735-2.118-5.456-2.118-8.162V49.185c0.029-2.853,0.765-5.632,2.206-8.338
		c2.735-5.265,7.412-7.897,14.03-7.897c6.706,0,11.411,2.691,14.118,8.074c1.411,2.765,2.117,5.486,2.117,8.162
		c0,0.589-0.28,0.882-0.838,0.882h-29.913v14.516c0,2.559,0.633,5.059,1.897,7.5c2.411,4.677,6.618,7.015,12.618,7.015
		s10.22-2.338,12.662-7.015c1.235-2.441,1.853-4.941,1.853-7.5c0-0.559,0.294-0.839,0.883-0.839c0.558,0,0.838,0.28,0.838,0.839
		c0,2.706-0.706,5.427-2.117,8.162c-2.707,5.382-7.412,8.073-14.118,8.073S-72.383,78.127-75.089,72.745z M-46.5,48.347
		c-0.235-3.059-1.118-5.736-2.647-8.03c-2.529-3.765-6.471-5.647-11.823-5.647c-5.354,0-9.295,1.882-11.824,5.647
		c-1.529,2.294-2.412,4.971-2.646,8.03H-46.5z"/>
	<path fill="#7AC6BF" d="M26.516,79.98c0,0.559-0.294,0.838-0.882,0.838c-0.56,0-0.839-0.279-0.839-0.838V49.185
		c0-2.559-0.633-5.059-1.896-7.5c-2.412-4.676-6.618-7.015-12.618-7.015S0.06,37.009-2.382,41.685
		c-1.265,2.442-1.896,4.941-1.896,7.5V79.98c0,0.559-0.28,0.838-0.839,0.838s-0.838-0.279-0.838-0.838V49.185
		c0-2.559-0.633-5.059-1.897-7.5c-2.441-4.676-6.662-7.015-12.662-7.015s-10.206,2.338-12.617,7.015
		c-1.266,2.442-1.897,4.941-1.897,7.5V79.98c0,0.559-0.295,0.838-0.883,0.838c-0.559,0-0.838-0.279-0.838-0.838V33.788
		c0-0.559,0.279-0.838,0.838-0.838c0.588,0,0.883,0.28,0.883,0.838v8.074c2.617-5.941,7.456-8.912,14.515-8.912
		c4.559,0,8.221,1.265,10.985,3.794c2.03,1.882,3.5,4.353,4.412,7.412c0.911-3.059,2.383-5.529,4.412-7.412
		c2.765-2.529,6.426-3.794,10.985-3.794c6.677,0,11.383,2.691,14.118,8.074c1.412,2.735,2.117,5.456,2.117,8.162V79.98z"/>
	<path fill="#7AC6BF" d="M50.692,32.949c6.706,0,11.412,2.677,14.118,8.03c1.412,2.765,2.118,5.5,2.118,8.206v15.354
		c0,2.706-0.706,5.441-2.118,8.206c-2.706,5.354-7.412,8.029-14.118,8.029c-7.059,0-11.897-2.956-14.515-8.868v23.427
		c0,0.559-0.295,0.839-0.883,0.839c-0.559,0-0.838-0.28-0.838-0.839V33.788c0-0.559,0.279-0.838,0.838-0.838
		c0.588,0,0.883,0.28,0.883,0.838v8.029C38.795,35.906,43.634,32.949,50.692,32.949z M65.208,49.185c0-2.559-0.618-5.059-1.854-7.5
		c-2.441-4.706-6.662-7.059-12.662-7.059s-10.221,2.353-12.662,7.059c-1.235,2.412-1.853,4.913-1.853,7.5v15.354
		c0,2.559,0.632,5.059,1.897,7.5c2.411,4.706,6.617,7.059,12.617,7.059s10.221-2.353,12.662-7.059
		c1.235-2.441,1.854-4.941,1.854-7.5V49.185z"/>
	<path fill="#7AC6BF" d="M74.869,79.98V18.39c0-0.559,0.279-0.838,0.839-0.838c0.588,0,0.882,0.28,0.882,0.838v61.59
		c0,0.559-0.294,0.838-0.882,0.838C75.148,80.818,74.869,80.539,74.869,79.98z"/>
	<path fill="#7AC6BF" d="M100.768,32.949c6.706,0,11.427,2.691,14.162,8.074c1.382,2.735,2.073,5.456,2.073,8.162V79.98
		c0,0.559-0.28,0.838-0.838,0.838c-0.589,0-0.883-0.279-0.883-0.838v-8.074c-2.618,5.941-7.456,8.912-14.515,8.912
		c-6.706,0-11.412-2.691-14.118-8.073c-1.412-2.735-2.118-5.456-2.118-8.162s0.706-5.441,2.118-8.206
		c2.706-5.354,7.412-8.029,14.118-8.029c7.059,0,11.896,2.955,14.515,8.867v-8.029c0-2.559-0.617-5.059-1.853-7.5
		c-2.442-4.676-6.662-7.015-12.662-7.015s-10.222,2.338-12.662,7.015c-1.235,2.442-1.854,4.941-1.854,7.5
		c0,0.589-0.294,0.882-0.882,0.882c-0.56,0-0.839-0.293-0.839-0.882c0-2.706,0.706-5.427,2.118-8.162
		C89.355,35.641,94.062,32.949,100.768,32.949z M100.768,79.097c6.029,0,10.25-2.338,12.662-7.015
		c1.235-2.441,1.853-4.941,1.853-7.5c0-2.56-0.617-5.059-1.853-7.5c-2.442-4.677-6.662-7.016-12.662-7.016
		s-10.222,2.339-12.662,7.016c-1.235,2.441-1.854,4.94-1.854,7.5c0,2.559,0.633,5.059,1.897,7.5
		C90.561,76.76,94.768,79.097,100.768,79.097z"/>
	<path fill="#7AC6BF" d="M141.224,80.818c-2.706,0-5.427-0.706-8.162-2.118c-5.382-2.735-8.073-7.44-8.073-14.117V18.39
		c0-0.559,0.279-0.838,0.838-0.838c0.588,0,0.883,0.28,0.883,0.838v14.559h14.515c0.588,0,0.883,0.28,0.883,0.838
		c0,0.559-0.295,0.838-0.883,0.838h-14.515v29.957c0,6,2.353,10.206,7.059,12.617c2.412,1.266,4.897,1.897,7.456,1.897
		c0.588,0,0.883,0.294,0.883,0.883C142.106,80.539,141.812,80.818,141.224,80.818z"/>
	<path fill="#7AC6BF" d="M152.166,72.745c-1.412-2.735-2.118-5.456-2.118-8.162V49.185c0.029-2.853,0.765-5.632,2.206-8.338
		c2.735-5.265,7.412-7.897,14.029-7.897c6.706,0,11.412,2.691,14.118,8.074c1.412,2.765,2.118,5.486,2.118,8.162
		c0,0.589-0.28,0.882-0.839,0.882h-29.912v14.516c0,2.559,0.632,5.059,1.897,7.5c2.411,4.677,6.617,7.015,12.617,7.015
		s10.221-2.338,12.662-7.015c1.235-2.441,1.854-4.941,1.854-7.5c0-0.559,0.293-0.839,0.882-0.839c0.559,0,0.839,0.28,0.839,0.839
		c0,2.706-0.706,5.427-2.118,8.162c-2.706,5.382-7.412,8.073-14.118,8.073S154.871,78.127,152.166,72.745z M180.754,48.347
		c-0.235-3.059-1.118-5.736-2.646-8.03c-2.53-3.765-6.471-5.647-11.824-5.647s-9.294,1.882-11.823,5.647
		c-1.53,2.294-2.412,4.971-2.647,8.03H180.754z"/>
	<path fill="#7AC6BF" d="M244.55,17.552c0.559,0,0.838,0.28,0.838,0.838v61.59c0,0.559-0.279,0.838-0.838,0.838
		c-0.56,0-0.838-0.279-0.838-0.838v-8.074c-2.647,5.941-7.501,8.912-14.56,8.912c-6.678,0-11.383-2.691-14.118-8.073
		c-1.412-2.735-2.118-5.456-2.118-8.162V49.185c0-2.706,0.706-5.427,2.118-8.162c2.735-5.382,7.44-8.074,14.118-8.074
		c7.059,0,11.912,2.971,14.56,8.912V18.39C243.712,17.832,243.99,17.552,244.55,17.552z M243.712,49.185
		c0-2.559-0.633-5.059-1.897-7.5c-2.441-4.676-6.662-7.015-12.662-7.015s-10.222,2.338-12.662,7.015
		c-1.235,2.442-1.854,4.941-1.854,7.5v15.397c0,2.559,0.633,5.059,1.897,7.5c2.411,4.677,6.618,7.015,12.618,7.015
		c6.029,0,10.25-2.338,12.662-7.015c1.265-2.441,1.897-4.941,1.897-7.5V49.185z"/>
	<path fill="#7AC6BF" d="M284.963,32.949c0.559,0,0.838,0.28,0.838,0.838v46.147c0,2.706-0.706,5.441-2.117,8.206
		c-2.707,5.354-7.412,8.03-14.118,8.03s-11.412-2.677-14.118-8.03c-1.411-2.765-2.117-5.5-2.117-8.206
		c0-0.558,0.279-0.838,0.838-0.838c0.588,0,0.883,0.28,0.883,0.838c0,2.56,0.632,5.059,1.896,7.501
		c2.412,4.676,6.618,7.015,12.618,7.015s10.206-2.339,12.618-7.015c1.264-2.442,1.896-4.941,1.896-7.501v-8.029
		c-2.618,5.941-7.441,8.912-14.471,8.912h-0.044c-6.706-0.029-11.412-2.72-14.118-8.073c-1.411-2.765-2.117-5.485-2.117-8.162
		V49.185c0-2.706,0.706-5.427,2.117-8.162c2.706-5.382,7.412-8.074,14.118-8.074c7.059,0,11.896,2.971,14.515,8.912v-8.074
		C284.08,33.229,284.374,32.949,284.963,32.949z M284.08,49.096c0-2.559-0.633-5.058-1.896-7.5
		c-2.442-4.677-6.647-7.015-12.618-7.015c-6,0-10.221,2.338-12.662,7.015c-1.235,2.441-1.853,4.941-1.853,7.5V64.45
		c0,2.559,0.632,5.06,1.896,7.5c2.412,4.677,6.618,7.016,12.618,7.016v0.882v-0.882c6,0,10.206-2.339,12.618-7.016
		c1.264-2.44,1.896-4.941,1.896-7.5V49.096z"/>
	<path fill="#7AC6BF" d="M293.742,79.98V18.39c0-0.559,0.279-0.838,0.838-0.838c0.588,0,0.883,0.28,0.883,0.838v61.59
		c0,0.559-0.295,0.838-0.883,0.838C294.021,80.818,293.742,80.539,293.742,79.98z"/>
	<path fill="#7AC6BF" d="M305.521,72.745c-1.411-2.735-2.117-5.456-2.117-8.162V49.185c0-2.676,0.706-5.397,2.117-8.162
		c2.706-5.382,7.412-8.074,14.118-8.074s11.411,2.691,14.118,8.074c1.411,2.765,2.117,5.486,2.117,8.162
		c0,0.589-0.279,0.882-0.838,0.882c-0.589,0-0.883-0.293-0.883-0.882c0-2.559-0.633-5.044-1.896-7.456
		c-2.412-4.706-6.618-7.059-12.618-7.059s-10.221,2.354-12.662,7.059c-1.235,2.412-1.853,4.897-1.853,7.456v15.397
		c0,2.559,0.632,5.059,1.896,7.5c2.412,4.677,6.618,7.015,12.618,7.015s10.221-2.338,12.662-7.015
		c1.235-2.441,1.853-4.941,1.853-7.5c0-0.559,0.294-0.839,0.883-0.839c0.559,0,0.838,0.28,0.838,0.839
		c0,2.706-0.706,5.427-2.117,8.162c-2.707,5.382-7.412,8.073-14.118,8.073S308.228,78.127,305.521,72.745z"/>
	<path fill="#7AC6BF" d="M375.494,50.067c-0.589,0-0.883-0.293-0.883-0.882c0-2.559-0.617-5.044-1.853-7.456
		c-2.441-4.706-6.662-7.059-12.662-7.059s-10.221,2.354-12.662,7.059c-1.235,2.412-1.853,4.897-1.853,7.456V79.98
		c0,0.559-0.295,0.838-0.883,0.838c-0.559,0-0.838-0.279-0.838-0.838V33.788c0-0.559,0.279-0.838,0.838-0.838
		c0.588,0,0.883,0.28,0.883,0.838v8.074c2.617-5.941,7.456-8.912,14.515-8.912c6.706,0,11.427,2.691,14.162,8.074
		c1.382,2.735,2.073,5.456,2.073,8.162C376.332,49.774,376.053,50.067,375.494,50.067z"/>
	<path fill="#7AC6BF" d="M386.391,72.745c-1.411-2.735-2.117-5.456-2.117-8.162V49.185c0.028-2.853,0.765-5.632,2.206-8.338
		c2.735-5.265,7.411-7.897,14.029-7.897c6.706,0,11.411,2.691,14.118,8.074c1.411,2.765,2.117,5.486,2.117,8.162
		c0,0.589-0.279,0.882-0.838,0.882h-29.912v14.516c0,2.559,0.632,5.059,1.896,7.5c2.412,4.677,6.618,7.015,12.618,7.015
		s10.221-2.338,12.662-7.015c1.235-2.441,1.853-4.941,1.853-7.5c0-0.559,0.294-0.839,0.883-0.839c0.559,0,0.838,0.28,0.838,0.839
		c0,2.706-0.706,5.427-2.117,8.162c-2.707,5.382-7.412,8.073-14.118,8.073S389.097,78.127,386.391,72.745z M414.979,48.347
		c-0.235-3.059-1.118-5.736-2.646-8.03c-2.53-3.765-6.472-5.647-11.824-5.647c-5.354,0-9.295,1.882-11.824,5.647
		c-1.529,2.294-2.411,4.971-2.646,8.03H414.979z"/>
	<path fill="#7AC6BF" d="M440.966,32.949c6.706,0,11.427,2.691,14.162,8.074c1.382,2.735,2.073,5.456,2.073,8.162V79.98
		c0,0.559-0.279,0.838-0.838,0.838c-0.589,0-0.883-0.279-0.883-0.838v-8.074c-2.618,5.941-7.456,8.912-14.515,8.912
		c-6.706,0-11.412-2.691-14.118-8.073c-1.411-2.735-2.117-5.456-2.117-8.162s0.706-5.441,2.117-8.206
		c2.706-5.354,7.412-8.029,14.118-8.029c7.059,0,11.896,2.955,14.515,8.867v-8.029c0-2.559-0.617-5.059-1.853-7.5
		c-2.441-4.676-6.662-7.015-12.662-7.015s-10.221,2.338-12.662,7.015c-1.235,2.442-1.853,4.941-1.853,7.5
		c0,0.589-0.295,0.882-0.883,0.882c-0.559,0-0.838-0.293-0.838-0.882c0-2.706,0.706-5.427,2.117-8.162
		C429.554,35.641,434.26,32.949,440.966,32.949z M440.966,79.097c6.029,0,10.25-2.338,12.662-7.015
		c1.235-2.441,1.853-4.941,1.853-7.5c0-2.56-0.617-5.059-1.853-7.5c-2.441-4.677-6.662-7.016-12.662-7.016
		s-10.221,2.339-12.662,7.016c-1.235,2.441-1.853,4.94-1.853,7.5c0,2.559,0.632,5.059,1.896,7.5
		C430.76,76.76,434.966,79.097,440.966,79.097z"/>
	<path fill="#7AC6BF" d="M481.423,80.818c-2.706,0-5.427-0.706-8.162-2.118c-5.382-2.735-8.073-7.44-8.073-14.117V18.39
		c0-0.559,0.279-0.838,0.838-0.838c0.588,0,0.883,0.28,0.883,0.838v14.559h14.515c0.588,0,0.883,0.28,0.883,0.838
		c0,0.559-0.295,0.838-0.883,0.838h-14.515v29.957c0,6,2.353,10.206,7.059,12.617c2.411,1.266,4.897,1.897,7.456,1.897
		c0.588,0,0.883,0.294,0.883,0.883C482.306,80.539,482.011,80.818,481.423,80.818z"/>
	<path fill="#7AC6BF" d="M506.084,80.245l-15.396-46.148c-0.177-0.529,0-0.882,0.529-1.059c0.558-0.206,0.926-0.029,1.103,0.529
		l14.56,43.678l14.559-43.678c0.177-0.559,0.544-0.735,1.104-0.529c0.529,0.176,0.705,0.529,0.529,1.059l-15.397,46.148
		c-0.118,0.382-0.383,0.573-0.794,0.573C506.466,80.818,506.201,80.627,506.084,80.245z"/>
	<path fill="#7AC6BF" d="M533.174,72.745c-1.411-2.735-2.117-5.456-2.117-8.162V49.185c0-2.706,0.706-5.427,2.117-8.162
		c2.706-5.382,7.412-8.074,14.118-8.074s11.427,2.691,14.162,8.074c1.382,2.735,2.073,5.456,2.073,8.162v15.397
		c0,2.706-0.691,5.427-2.073,8.162c-2.735,5.382-7.456,8.073-14.162,8.073S535.88,78.127,533.174,72.745z M534.63,41.685
		c-1.235,2.442-1.853,4.941-1.853,7.5v15.397c0,2.559,0.632,5.059,1.896,7.5c2.412,4.677,6.618,7.015,12.618,7.015
		c6.029,0,10.25-2.338,12.662-7.015c1.265-2.441,1.897-4.941,1.897-7.5V49.185c-0.03-2.559-0.662-5.059-1.897-7.5
		c-2.441-4.676-6.662-7.015-12.662-7.015S537.071,37.009,534.63,41.685z"/>
</g>
</svg>
