<?xml version="1.0" encoding="utf-8"?>
<!-- Generator: Adobe Illustrator 16.0.0, SVG Export Plug-In . SVG Version: 6.00 Build 0)  -->
<!DOCTYPE svg PUBLIC "-//W3C//DTD SVG 1.1//EN" "http://www.w3.org/Graphics/SVG/1.1/DTD/svg11.dtd">
<svg version="1.1" id="Capa_1" xmlns="http://www.w3.org/2000/svg" xmlns:xlink="http://www.w3.org/1999/xlink" x="0px" y="0px"
	 width="450px" height="95.027px" viewBox="0 0 450 95.027" enable-background="new 0 0 450 95.027" xml:space="preserve">
<g>
	<path fill="#7AC6BF" d="M86.557,75.149c-1.523,0.856-2.968,1.492-4.333,1.904c-1.365,0.413-2.65,0.619-3.856,0.619
		c-1.619,0-2.754-0.453-3.404-1.357c-0.651-0.904-0.976-2.595-0.976-5.07c0-1.618,0.167-6.546,0.5-14.782
		c0.333-8.236,0.5-15.654,0.5-22.256c0-1.682-0.047-5.237-0.143-10.664c-0.032-2.634-0.047-4.713-0.047-6.237h-3.618
		c-4.666,0-8.435,0.207-11.307,0.619c-2.873,0.413-5.087,1.064-6.641,1.952c-0.731-1.396-1.27-2.595-1.619-3.594
		c-0.35-1-0.523-1.88-0.523-2.642c0-1.429,0.492-2.436,1.476-3.023c0.983-0.587,2.697-0.881,5.142-0.881
		c1.269,0,4.904,0.143,10.902,0.429s11.378,0.429,16.139,0.429c5.744,0,10.323-0.222,13.735-0.667
		c3.412-0.444,6.006-1.158,7.784-2.142c0.635,1.016,1.103,1.944,1.405,2.785c0.301,0.841,0.452,1.626,0.452,2.356
		c0,1.714-0.635,2.976-1.904,3.785c-1.27,0.81-3.237,1.214-5.903,1.214c-0.984,0-3.365-0.085-7.141-0.257
		c-3.777-0.172-6.792-0.292-9.045-0.361c-0.223,5.559-0.389,10.792-0.5,15.7c-0.111,4.908-0.167,9.426-0.167,13.555
		c0,7.909,0.246,14.12,0.738,18.63C84.692,69.701,85.477,73.02,86.557,75.149z"/>
	<path fill="#7AC6BF" d="M109.218,40.11c2.38-3.333,4.649-5.816,6.808-7.451c2.158-1.634,4.285-2.452,6.379-2.452
		c1.777,0,3.292,0.563,4.546,1.69c1.253,1.127,1.881,2.516,1.881,4.166c0,1.08-0.357,2.135-1.071,3.166
		c-0.714,1.032-1.785,2.055-3.214,3.07c-0.508-1.396-1.135-2.428-1.88-3.094c-0.746-0.667-1.642-1-2.69-1
		c-1.555,0-3.189,0.77-4.903,2.309c-1.714,1.54-3.396,3.754-5.046,6.642c-0.159,1.428-0.286,2.88-0.381,4.355
		s-0.143,2.912-0.143,4.309c0,4.761,0.262,8.729,0.786,11.902c0.524,3.174,1.34,5.776,2.452,7.808
		c-1.27,0.666-2.516,1.175-3.737,1.523c-1.222,0.35-2.421,0.523-3.594,0.523c-1.556,0-2.627-0.389-3.214-1.166
		c-0.587-0.777-0.881-2.341-0.881-4.689c0-0.857,0.167-4.149,0.5-9.879c0.333-5.729,0.5-11.053,0.5-15.972
		c0-4.03-0.159-7.125-0.476-9.284c-0.318-2.158-0.841-4.062-1.571-5.713c0.634-0.221,1.261-0.388,1.88-0.5
		c0.619-0.111,1.261-0.167,1.928-0.167c1.84,0,3.205,0.437,4.094,1.309c0.888,0.873,1.333,2.213,1.333,4.023
		c0,0.413-0.023,0.976-0.071,1.69C109.385,37.943,109.313,38.904,109.218,40.11z"/>
	<path fill="#7AC6BF" d="M173.868,75.053c-1.238,0.794-2.365,1.397-3.38,1.81c-1.017,0.413-1.904,0.618-2.666,0.618
		c-1.365,0-2.357-0.42-2.976-1.261c-0.619-0.841-0.976-2.197-1.071-4.071c-2.38,2.032-4.737,3.54-7.07,4.523
		c-2.333,0.983-4.706,1.476-7.117,1.476c-4.761,0-8.602-1.333-11.521-3.999c-2.92-2.666-4.38-6.173-4.38-10.521
		c0-4.919,2.007-8.862,6.022-11.83c4.015-2.968,9.418-4.451,16.21-4.451c1.111,0,2.293,0.04,3.547,0.119
		c1.253,0.08,2.595,0.199,4.023,0.357c0.063-0.285,0.103-0.579,0.119-0.88c0.016-0.301,0.024-0.658,0.024-1.071
		c0-3.3-0.929-5.815-2.785-7.546c-1.857-1.729-4.547-2.594-8.069-2.594c-2.921,0-5.325,0.484-7.213,1.452
		c-1.889,0.969-3.42,2.468-4.594,4.499c-1.143-0.286-2.008-0.777-2.595-1.476c-0.588-0.697-0.881-1.602-0.881-2.713
		c0-2.316,1.468-4.229,4.404-5.737c2.935-1.507,6.768-2.261,11.497-2.261c5.808,0,10.164,1.404,13.068,4.213
		c2.904,2.809,4.356,7.006,4.356,12.592c0,1.048-0.048,2.873-0.143,5.475c-0.096,2.604-0.143,4.698-0.143,6.284
		c0,4.381,0.262,7.903,0.786,10.569C171.845,71.292,172.694,73.435,173.868,75.053z M163.395,53.867
		c-1.46-0.222-2.77-0.388-3.928-0.5c-1.159-0.11-2.15-0.166-2.976-0.166c-4.92,0-8.633,0.817-11.14,2.451
		c-2.508,1.636-3.761,4.071-3.761,7.309c0,2.603,0.873,4.649,2.619,6.141c1.745,1.493,4.157,2.238,7.236,2.238
		c2.316,0,4.482-0.437,6.498-1.31c2.015-0.872,3.864-2.182,5.546-3.928c-0.064-1.586-0.104-2.88-0.119-3.88
		c-0.016-1-0.024-1.959-0.024-2.88c0-0.571,0.016-1.468,0.048-2.69C163.426,55.431,163.426,54.503,163.395,53.867z"/>
	<path fill="#7AC6BF" d="M184.485,73.768c0.412-4.634,0.714-9.95,0.905-15.948c0.19-5.999,0.286-13.06,0.286-21.186
		c0-9.584-0.19-16.003-0.571-19.257c-0.381-3.253-1.047-5.768-2-7.545c1.555-0.762,2.888-1.31,3.999-1.643
		c1.11-0.333,2.095-0.5,2.952-0.5c1.428,0,2.42,0.429,2.976,1.285c0.555,0.857,0.833,2.508,0.833,4.951
		c0,0.477-0.095,3.103-0.286,7.879c-0.19,4.777-0.318,9.387-0.381,13.83c2.697-1.809,5.308-3.149,7.832-4.022
		c2.523-0.873,5.038-1.31,7.546-1.31c5.934,0,10.846,2.032,14.734,6.094c3.887,4.063,5.832,9.236,5.832,15.521
		c0,7.49-2.531,13.734-7.593,18.733c-5.063,4.999-11.434,7.498-19.114,7.498c-2.73,0-5.57-0.357-8.521-1.071
		C190.959,76.363,187.818,75.26,184.485,73.768z M193.197,68.531c1.936,1.047,3.792,1.825,5.57,2.332
		c1.777,0.509,3.523,0.762,5.237,0.762c4.951,0,9.029-1.769,12.235-5.308c3.205-3.539,4.808-8.069,4.808-13.593
		c0-4.823-1.333-8.664-3.999-11.521s-6.236-4.285-10.711-4.285c-1.968,0-4.031,0.397-6.189,1.19
		c-2.159,0.794-4.492,2.016-6.998,3.666v0.286c-0.127,5.936-0.19,10.363-0.19,13.283c0,1.523,0.015,3.197,0.047,5.022
		C193.038,62.192,193.102,64.912,193.197,68.531z"/>
	<path fill="#7AC6BF" d="M276.844,75.053c-1.238,0.794-2.365,1.397-3.381,1.81c-1.016,0.413-1.904,0.618-2.666,0.618
		c-1.364,0-2.355-0.42-2.975-1.261s-0.977-2.197-1.071-4.071c-2.38,2.032-4.737,3.54-7.069,4.523
		c-2.333,0.983-4.706,1.476-7.117,1.476c-4.762,0-8.602-1.333-11.521-3.999s-4.38-6.173-4.38-10.521
		c0-4.919,2.007-8.862,6.022-11.83c4.015-2.968,9.418-4.451,16.211-4.451c1.109,0,2.292,0.04,3.546,0.119
		c1.253,0.08,2.595,0.199,4.022,0.357c0.063-0.285,0.104-0.579,0.119-0.88c0.016-0.301,0.023-0.658,0.023-1.071
		c0-3.3-0.928-5.815-2.784-7.546c-1.856-1.729-4.546-2.594-8.069-2.594c-2.921,0-5.324,0.484-7.213,1.452
		c-1.889,0.969-3.42,2.468-4.594,4.499c-1.143-0.286-2.008-0.777-2.595-1.476c-0.588-0.697-0.881-1.602-0.881-2.713
		c0-2.316,1.468-4.229,4.403-5.737c2.936-1.507,6.768-2.261,11.498-2.261c5.808,0,10.164,1.404,13.068,4.213
		c2.903,2.809,4.355,7.006,4.355,12.592c0,1.048-0.047,2.873-0.143,5.475c-0.096,2.604-0.143,4.698-0.143,6.284
		c0,4.381,0.262,7.903,0.785,10.569S275.669,73.435,276.844,75.053z M266.37,53.867c-1.46-0.222-2.77-0.388-3.928-0.5
		c-1.159-0.11-2.15-0.166-2.976-0.166c-4.92,0-8.633,0.817-11.141,2.451c-2.507,1.636-3.76,4.071-3.76,7.309
		c0,2.603,0.872,4.649,2.617,6.141c1.746,1.493,4.158,2.238,7.236,2.238c2.316,0,4.483-0.437,6.499-1.31
		c2.015-0.872,3.864-2.182,5.546-3.928c-0.063-1.586-0.104-2.88-0.119-3.88s-0.023-1.959-0.023-2.88c0-0.571,0.016-1.468,0.048-2.69
		C266.401,55.431,266.401,54.503,266.37,53.867z"/>
	<path fill="#7AC6BF" d="M287.935,32.254c1.302-0.698,2.539-1.214,3.715-1.547c1.173-0.333,2.315-0.5,3.428-0.5
		c1.586,0,2.666,0.468,3.236,1.404c0.572,0.937,0.857,3.261,0.857,6.975v1.761c0,12.854-0.303,22.241-0.904,28.16
		c-0.604,5.92-1.604,10.466-3,13.64c-1.683,3.744-4.047,7.022-7.094,9.831s-5.459,4.213-7.236,4.213
		c-0.824,0-1.482-0.262-1.975-0.785s-0.738-1.198-0.738-2.023c0-0.984,0.777-2.063,2.332-3.237c0.953-0.73,1.666-1.35,2.143-1.856
		c2.824-3.016,4.832-6.936,6.022-11.759c1.19-4.824,1.786-11.918,1.786-21.281c0-6.284-0.207-11.266-0.619-14.948
		C289.474,36.618,288.824,33.937,287.935,32.254z M300.314,15.687c0,1.809-0.636,3.317-1.904,4.522
		c-1.27,1.207-2.873,1.81-4.809,1.81c-1.65,0-2.976-0.477-3.975-1.429c-1-0.952-1.5-2.237-1.5-3.856
		c0-1.777,0.635-3.292,1.904-4.546c1.269-1.253,2.824-1.881,4.666-1.881c1.617,0,2.959,0.508,4.021,1.523
		C299.782,12.847,300.314,14.132,300.314,15.687z"/>
	<path fill="#7AC6BF" d="M335.543,78.767c-7.363,0-13.361-2.269-17.995-6.808s-6.95-10.362-6.95-17.473
		c0-7.553,2.475-13.687,7.426-18.4c4.951-4.713,11.379-7.07,19.281-7.07c7.141,0,13.021,2.237,17.639,6.713
		c4.618,4.475,6.928,10.14,6.928,16.995c0,2.762-0.438,5.492-1.311,8.189s-2.055,4.998-3.547,6.902
		c-2.824,3.65-6.021,6.388-9.592,8.213C343.851,77.854,339.89,78.767,335.543,78.767z M336.115,71.911
		c5.141,0,9.354-1.722,12.639-5.166c3.285-3.443,4.928-7.862,4.928-13.259c0-5.268-1.611-9.561-4.832-12.877
		c-3.222-3.316-7.402-4.975-12.545-4.975c-5.236,0-9.466,1.722-12.688,5.166c-3.221,3.444-4.832,8.006-4.832,13.687
		c0,5.047,1.635,9.212,4.904,12.497C326.957,70.269,331.099,71.911,336.115,71.911z"/>
	<path fill="#7AC6BF" d="M372.297,69.959c1.143,0.604,2.238,1.047,3.285,1.333s2.063,0.429,3.047,0.429
		c2.285,0,4.125-0.548,5.521-1.643s2.096-2.53,2.096-4.309c0-1.396-0.381-2.697-1.143-3.904c-0.762-1.205-2.189-2.666-4.285-4.379
		c-0.35-0.254-0.826-0.635-1.428-1.144c-5.365-4.442-8.047-8.378-8.047-11.806c0-1.396,0.27-2.792,0.811-4.189
		c0.539-1.396,1.332-2.729,2.381-3.999c1.998-2.38,4.338-4.197,7.021-5.451c2.682-1.253,5.576-1.88,8.688-1.88
		c1.523,0,2.682,0.294,3.477,0.881c0.793,0.587,1.189,1.437,1.189,2.547c0,0.54-0.143,1.183-0.428,1.928
		c-0.287,0.746-0.762,1.69-1.43,2.833c-0.855-0.349-1.666-0.611-2.428-0.786c-0.762-0.174-1.508-0.262-2.236-0.262
		c-2.635,0-4.77,0.643-6.404,1.928c-1.635,1.285-2.451,2.944-2.451,4.975c0,2.222,2.205,5.222,6.617,8.998
		c1.111,0.952,1.951,1.698,2.523,2.237c1.871,1.65,3.252,3.277,4.143,4.88c0.887,1.604,1.332,3.246,1.332,4.928
		c0,3.968-1.754,7.387-5.26,10.259c-3.508,2.873-7.77,4.309-12.783,4.309c-1.746,0-3.088-0.35-4.023-1.047
		c-0.936-0.698-1.404-1.682-1.404-2.952c0-0.603,0.127-1.269,0.381-1.999C371.312,71.944,371.724,71.038,372.297,69.959z"/>
</g>
</svg>
